<?xml version="1.0" encoding="UTF-8" standalone="no"?>
<!-- Created with Inkscape (http://www.inkscape.org/) -->

<svg
   xmlns:dc="http://purl.org/dc/elements/1.1/"
   xmlns:cc="http://creativecommons.org/ns#"
   xmlns:rdf="http://www.w3.org/1999/02/22-rdf-syntax-ns#"
   xmlns:svg="http://www.w3.org/2000/svg"
   xmlns="http://www.w3.org/2000/svg"
   version="1.1"
   width="23.721657"
   height="30.06126"
   id="svg4060">
  <defs
     id="defs4062" />
  <metadata
     id="metadata4065">
    <rdf:RDF>
      <cc:Work
         rdf:about="">
        <dc:format>image/svg+xml</dc:format>
        <dc:type
           rdf:resource="http://purl.org/dc/dcmitype/StillImage" />
        <dc:title></dc:title>
      </cc:Work>
    </rdf:RDF>
  </metadata>
  <g
     transform="translate(-378.63917,-505.33155)"
     id="layer1">
    <path
       d="m 384.73523,516.34553 c 0.10737,0.0772 0.13181,0.33841 0.32246,0.24226 0.0361,-0.057 0.0639,-0.11952 0.0821,-0.18463 0.0875,0.0494 0.17978,0.0834 0.27768,0.10253 0.0513,-0.11041 0.19998,-0.76593 0.28892,-0.7231 0.22406,0.10656 0.25391,0.0715 0.42043,-0.18492 0.12849,-0.19716 0.36895,-1.06814 0.55796,-1.25724 0.0882,0.14029 0.65,0.57639 0.83685,0.51971 0.15642,-0.19503 0.23815,-0.4187 0.24686,-0.66835 0.10115,0.0231 0.20342,0.0433 0.30525,0.0592 0.15674,-0.0941 0.0136,-0.58633 0.29807,-0.47953 0.42496,-0.16833 0.18931,-0.82881 0.32651,-0.95436 0.26042,0.17749 0.72146,0.48241 0.82595,0.73405 0.2002,0.0536 0.162,-0.1892 0.18764,-0.29344 0.32843,0.32196 0.49102,-0.2177 0.46791,-0.43782 0.26659,6e-4 0.67083,-0.47622 0.44947,-0.80766 0.46328,-0.10613 0.64967,0.99933 1.01127,0.32001 0.0192,-0.0347 1.45153,-0.40355 0.97097,-0.97728 0.35679,-0.042 0.56984,0.6478 0.89593,0.63239 0.063,-0.28148 0.46141,-0.49472 0.46536,-0.65149 0.2808,-0.0833 0.24542,-0.44503 0.36747,-0.62163 0.59668,0.66711 0.91025,-0.32361 1.18736,-0.51314 0.18468,-0.12683 0.522,-0.5279 0.42568,-0.76899 0.21422,0.0237 1.07462,0.90065 1.09086,-0.0435 0.3598,0.0714 0.80203,-0.2067 0.80044,-0.59248 0.42023,-0.0612 0.61922,0.3926 0.86613,-0.3312 0.24399,0.11377 0.90033,-0.56781 0.93932,-0.76439 0.71084,0.36408 2.32747,-1.69315 2.71075,-2.36898 -0.0213,0.1955 -0.45612,2.21635 -0.44048,2.23039 0.0516,0.0459 0.004,0.62367 -0.0212,0.76978 -0.0948,0.5356 0.0729,0.13686 0.1475,0.49958 0.0979,0.47335 -0.63859,1.05861 -0.19806,1.46938 0.14292,0.1333 -0.44089,1.29721 -0.28445,1.64023 -0.58003,0.29996 -0.3322,0.96134 -0.1161,1.30397 0.016,0.0247 -0.33838,0.31375 -0.25458,0.55755 -0.26873,0.39764 0.0147,0.41714 -0.0316,0.69549 -0.71831,0.0375 -0.6325,1.04164 0.0146,1.19117 -0.11896,0.38169 -0.80574,0.62428 -0.7815,1.17692 0.002,0.0467 -0.29629,0.40613 -0.32122,0.55224 -0.0647,0.37049 0.44241,0.44328 0.59185,0.7664 -0.34137,-0.0719 -0.84502,0.61549 -0.56874,0.88589 -0.0985,0.13512 -1.05951,0.55416 -0.74234,0.82822 0.29778,0.25827 0.53632,0.47211 0.83481,0.77224 -0.15124,0.0573 -1.09845,0.004 -0.82897,0.53567 -0.17019,0.0457 -0.60784,0.28502 -0.44856,0.52327 0.1516,0.22552 -0.13993,0.25234 -0.28974,0.4076 0.005,0.0813 0.76984,0.79022 0.88286,0.93011 -0.66596,-0.0836 -0.6351,0.54794 -1.11188,0.66112 -0.28596,0.0675 -0.22141,0.24784 -0.44268,0.37839 -0.41569,0.24557 0.17406,0.44641 0.25333,0.67361 -0.55762,0.19178 -0.57636,0.74808 -0.0694,1.10589 -0.14078,0.12521 -0.80663,0.35003 -0.98742,0.41036 -0.20618,0.0693 -0.81063,0.44354 -1.00856,0.60085 -0.27768,0.21874 -0.71101,0.5983 -1.11847,0.79897 -0.45814,0.22643 0.37074,0.77965 0.44644,1.10458 -1.05382,0.14205 -1.61878,0.80652 -2.67919,1.00254 -0.48688,0.0908 0.0308,0.37215 -0.3085,0.42586 -0.17346,0.0276 -0.47525,-0.0675 -0.59877,0.11565 -0.32401,-0.12483 -0.76781,-0.14862 -1.02846,0.11885 -0.23227,0.23899 0.0116,0.53971 -0.12952,0.69693 -0.58453,0.0111 -1.0003,0.33276 -1.60594,0.38088 -0.38855,0.0303 -2.23072,-0.22011 -2.45541,0.12828 -0.66444,-0.0966 -1.1994,-0.59725 -1.85465,-0.67345 -0.53653,-0.062 -1.07292,-0.12254 -1.60945,-0.18452 -1.25716,-0.14502 -2.30885,1.75735 -3.02985,2.64168 -0.24139,0.29607 -1.10102,1.98345 -1.34377,1.93778 -0.69222,-0.13214 0.77785,-1.77856 1.03217,-2.08732 0.63479,-0.76752 1.36423,-1.45015 2.01531,-2.2044 0.69559,-0.8057 0.31007,-1.26969 -0.13066,-2.0806 -0.42583,-0.78328 -0.83304,-1.73976 -0.9859,-2.62047 0.12299,-0.24422 0.001,-1.15651 -0.0562,-1.46768 0.169,-0.0854 0.28477,0.0954 0.44733,0.0305 0.46257,-0.51829 -0.17721,-1.08506 -0.045,-1.65078 0.0917,-0.32775 0.14844,-0.49699 0.25602,-0.94861 0.11456,-0.48075 -0.0809,-1.04653 0.20759,-1.45258 -0.0902,-0.36255 0.70943,-0.81635 0.40768,-1.25332 0.29107,0.0734 0.4882,0.39029 0.84092,0.31531 0.28152,-0.16014 0.14661,-0.50108 0.17778,-0.74662 0.0511,-0.40606 0.20064,-0.75249 0.37846,-0.98168 0.22858,-0.29618 0.12222,-0.85255 0.3473,-1.14127 0.3282,0.0263 0.54462,-0.71073 0.48183,-1.01352 0.20179,-6.3e-4 0.31866,0.28173 0.53785,0.25659"
       id="path1032" />
  </g>
</svg>
