<?xml version="1.0" encoding="UTF-8" standalone="no"?>
<!-- Created with Inkscape (http://www.inkscape.org/) -->

<svg
   xmlns:dc="http://purl.org/dc/elements/1.1/"
   xmlns:cc="http://creativecommons.org/ns#"
   xmlns:rdf="http://www.w3.org/1999/02/22-rdf-syntax-ns#"
   xmlns:svg="http://www.w3.org/2000/svg"
   xmlns="http://www.w3.org/2000/svg"
   xmlns:sodipodi="http://sodipodi.sourceforge.net/DTD/sodipodi-0.dtd"
   xmlns:inkscape="http://www.inkscape.org/namespaces/inkscape"
   width="83.349693"
   height="61.594898"
   id="svg3214"
   version="1.1"
   inkscape:version="0.48.2 r9819"
   sodipodi:docname="New document 4">
  <defs
     id="defs3216" />
  <sodipodi:namedview
     id="base"
     pagecolor="#ffffff"
     bordercolor="#666666"
     borderopacity="1.0"
     inkscape:pageopacity="0.0"
     inkscape:pageshadow="2"
     inkscape:zoom="4"
     inkscape:cx="41.6749"
     inkscape:cy="30.796897"
     inkscape:document-units="px"
     inkscape:current-layer="layer1"
     showgrid="false"
     fit-margin-top="0"
     fit-margin-left="0"
     fit-margin-right="0"
     fit-margin-bottom="0"
     inkscape:window-width="483"
     inkscape:window-height="424"
     inkscape:window-x="328"
     inkscape:window-y="76"
     inkscape:window-maximized="0" />
  <metadata
     id="metadata3219">
    <rdf:RDF>
      <cc:Work
         rdf:about="">
        <dc:format>image/svg+xml</dc:format>
        <dc:type
           rdf:resource="http://purl.org/dc/dcmitype/StillImage" />
        <dc:title></dc:title>
      </cc:Work>
    </rdf:RDF>
  </metadata>
  <g
     inkscape:label="Layer 1"
     inkscape:groupmode="layer"
     id="layer1"
     transform="translate(-333.3251,-501.56418)">
    <path
       inkscape:connector-curvature="0"
       id="path38-3"
       style="fill:#000000;fill-opacity:1;fill-rule:evenodd;stroke:none"
       d="m 342.02395,552.60468 c 0.28625,0.195 0.4175,0.2375 0.5125,-0.1275 -0.24375,-0.21625 -0.415,-0.17375 -0.5125,0.1275 m 0,-0.445 c 0.19,-0.085 0.0775,0.003 0.19125,-0.12875 -0.0612,0.04 -0.12625,0.0838 -0.19125,0.12875 m -0.63875,-0.0675 c 0.3775,-0.175 0.10375,-0.52375 0,0 m 4.0925,-0.31625 c 0.0925,0.6825 0.445,2.04625 1.34375,2.04625 0.4125,-1.04 -0.26625,-2.04625 -1.34375,-2.04625 m 3.70875,0 c 0.3675,0.34625 0.2375,0 0,0 m -7.22625,-0.2575 c 0.21875,0.44875 0.43875,-0.42625 0,0 m 0.385,-0.065 c 0.0625,-0.0213 0.12625,-0.0412 0.19125,-0.0638 -0.065,0.0225 -0.12875,0.0425 -0.19125,0.0638 m 2.42875,-0.0638 c 0,0.0937 0.2925,0.24625 0.38375,0.32 0.1025,-0.385 -0.0112,-0.32 -0.38375,-0.32 m 0.89625,-0.19125 c 0.11,0.2275 0.23375,0.0662 0.4475,0.0662 0,-0.3125 -0.2375,-0.1525 -0.4475,-0.0662 m 1.08625,-0.255 c -0.005,0.34125 -0.005,0.6825 0,1.02375 0.34875,-0.17375 0.715,-1.02375 0,-1.02375 m -4.47625,-0.12875 c 0.0438,-0.0225 0.0863,-0.0425 0.1275,-0.0625 -0.0412,0.02 -0.0837,0.04 -0.1275,0.0625 m 12.98375,0 c 0.0412,-0.0225 0.085,-0.0425 0.1275,-0.0625 -0.0425,0.02 -0.0863,0.04 -0.1275,0.0625 m -3.32625,0 c -0.0225,-0.0425 -0.0425,-0.085 -0.0638,-0.1275 0.03,0.0688 -0.0562,0.0488 0.0638,0.1275 m -10.42375,-0.19125 c 0.1525,0.075 0.0812,0.1575 0.19,0 l -0.19,0 z m 0.44625,-0.13 c 0.17375,0.10125 0.09,0.185 0.255,0 l -0.255,0 z m 18.5475,0.32125 c 0.1125,-0.5075 -0.5725,-0.3775 -0.58375,0.30875 -0.0125,0.805 0.26625,1.64875 0.26625,2.37875 1.42125,-0.4375 1.0425,-1.9325 0.76625,-3.00875 -0.1275,0.1375 -0.27625,0.245 -0.44875,0.32125 m -10.2325,-0.385 c 0,0.38125 0.53125,0 0,0 m -5.30875,0.385 c 0.34,-0.045 0.29875,-0.215 -0.12625,-0.51125 -0.035,0.185 0.006,0.355 0.12625,0.51125 m 0.575,-0.76875 c 0,0.45125 0.32125,0 0,0 m 14.3925,0.19125 c 0.775,1.5975 0,-2.46125 0,0 m 29.6775,-2.17125 c -0.20875,-0.1525 0,-0.21625 0,0 m -53.6625,0.0625 c 0.3875,0 0.16875,-0.58625 0,0 m -1.6,-0.32 c -0.27125,0.1275 -0.28,-0.0163 -0.32,-0.065 0.10625,0.0225 0.21375,0.0438 0.32,0.065 m 3.45375,-0.32 c 0.14125,0.44125 0.0937,0 0,0 m 19.8275,-0.0638 c 0.155,0.36 0.16,0 0,0 m -21.3625,-0.19375 c -0.13875,0.465 0.11875,0 0,0 m 52.76625,-0.255 c 0.065,-0.0625 0.13,-0.1275 0.19375,-0.19125 -0.10375,0.17125 -0.02,0.0913 -0.19375,0.19125 m -14.965,0.13 c 0.49625,0.14875 0.77375,0.0413 0.83125,-0.32125 -0.62,0.0462 -0.20375,-0.1925 -0.83125,0.32125 m -16.565,-0.38625 c 0.0625,-0.02 0.12625,-0.04 0.19125,-0.0638 -0.065,0.0237 -0.12875,0.0437 -0.19125,0.0638 m 22.44875,-0.1275 c 0.26375,0.38125 0.21625,-0.0962 0,0 m -44.00375,0.1925 c 0,0.1475 0.55125,0.24625 0.575,-0.32 -0.18875,0.11375 -0.38,0.22 -0.575,0.32 m 57.5,-0.83125 c -1.07,1.71625 2.3,0 0,0 m -18.42125,-0.0638 c 0.20625,0.2275 0.255,0 0,0 m -39.97375,-0.385 c -0.225,0.21375 0.21375,0.1925 0.31875,0.1925 0.0625,-0.235 -0.0425,-0.29875 -0.31875,-0.1925 m 56.34875,0.0662 c 0.0425,-0.0437 0.0838,-0.0862 0.12625,-0.1275 -0.12125,0.0888 -0.0362,0.002 -0.12625,0.1275 m -23.21875,-0.1275 c 0,0.52625 0.3475,-0.35875 0,0 m 26.73375,-0.31875 c 0.33125,0.52 0.0612,-0.3775 0.0675,-0.5775 -0.0213,0.1925 -0.045,0.38375 -0.0675,0.5775 m 0.64125,-1.3475 c 0.15875,0.435 0.085,0 0,0 m -10.1075,-0.63875 c 0.1475,0.39 0.30125,0 0,0 m 2.11375,-0.1925 c 0.28875,0.4525 0.22375,-0.10625 0,0 m 11.89625,0.065 c 0.24,1.17125 -1.25125,-0.73125 0,0 m 0.065,-0.065 c 0.12625,-0.10125 0.0863,-0.085 0.3175,-0.1275 -0.10375,0.045 -0.2125,0.085 -0.3175,0.1275 m -12.85625,-0.32 c -0.46875,-0.22875 -0.64,-0.12125 -0.5125,0.32 0.22125,-0.0287 0.3925,-0.135 0.5125,-0.32 m 7.22625,0.5125 c 0.115,0.58125 0.3925,0.8375 0.83,0.76875 -0.105,-0.50375 -0.295,-0.9725 -0.57375,-1.40625 l -0.25625,0.6375 m -10.745,-0.57375 c 0.3575,0.0913 0.39625,-0.20375 0,0 m 12.79375,-0.13 c -0.185,0.68 0.345,0 0,0 m -8.82875,0 c 0.28375,0.28375 0.1125,-0.10625 0,0 m 4.67,-0.125 0,-0.12875 0,0.12875 z m 3.32375,-0.2575 c -0.13,0.1225 -0.17125,0.2725 -0.125,0.44875 0.3625,-0.3375 0.40375,-0.4875 0.125,-0.44875 m -13.1125,0.065 c 0.0662,-0.0437 0.13125,-0.0862 0.1925,-0.1275 -0.0613,0.0412 -0.12625,0.0838 -0.1925,0.1275 m -45.795,-0.2575 c -0.15125,0.645 0.29125,0 0,0 m 65.2425,-0.0638 c 0.0625,-0.0213 0.1275,-0.045 0.19125,-0.0638 -0.0638,0.0188 -0.12875,0.0425 -0.19125,0.0638 m 8.31375,0.32125 c 0.0125,0.0412 -0.66625,0.4475 -0.895,0.4475 0.045,-0.5975 -0.28875,-0.1825 0.44625,-0.8325 0.0687,0.22125 0.21875,0.35 0.44875,0.385 m -20.4675,0.3175 c 0.25125,-0.15 0.42125,-0.36375 0.5125,-0.63875 -0.06,-0.0263 -0.1025,-0.0688 -0.12875,-0.1275 -0.1275,0.255 -0.255,0.51125 -0.38375,0.76625 m 1.66375,-0.63875 0,-0.1275 0,0.1275 z m -9.14625,-0.1925 c 0,0.34375 0.575,0.34 0.575,0.70625 0.0575,-0.0937 0.44625,-0.4625 0.44625,-0.45 -0.3025,-0.24625 -0.6425,-0.33125 -1.02125,-0.25625 m 25.83875,0.065 c -0.14875,0.0213 -0.29875,0.0425 -0.4475,0.0638 0.17375,-0.2125 0.21125,-0.215 0.4475,-0.0638 m 0.32,0.0638 c -0.15375,-0.30875 0.57125,-0.19625 0,0 m -73.875,-0.0638 c -0.0412,-0.065 -0.085,-0.12875 -0.125,-0.19125 -0.10125,0.15625 0.005,0.0925 0.125,0.19125 m 66.77375,-0.32 c -0.1675,0.365 0.33625,0 0,0 m 8.70125,0 c -0.0213,-0.0638 -0.0425,-0.1275 -0.065,-0.19125 -0.0537,0.1575 -0.0238,0.055 0.065,0.19125 m -3.96625,-0.19125 c 0,0.52375 0.24375,0.1275 0.64,0.1275 0,-0.33625 -0.4,-0.16125 -0.64,-0.1275 m -70.22875,-0.32 c -0.25,0.23375 -0.0888,0.32 0.19125,0.32 0,-0.2175 0.0438,-0.32 -0.19125,-0.32 m 63.77,-0.0638 c -0.19875,0.51875 0.3575,0 0,0 m -65.37,0 c -0.2025,0 -0.10875,-0.21875 0,0 m 60.445,0.0638 c 0.1725,0 0.25375,-0.37875 0,0 m 14.64625,0 c 0.0863,-0.13125 0.07,-0.10375 0.19125,-0.19125 -0.0875,0.1275 -0.07,0.10375 -0.19125,0.19125 m -22.32375,-0.12875 c 0.39125,0.19625 0.27875,-0.71125 0,0 m 3.32625,0 c 0.24375,0.39625 0.68625,0.64 1.08875,0.64 -0.025,-0.7525 -0.5625,-1.01375 -1.08875,-0.64 m 17.14125,-0.32 c -0.31125,0.16875 -0.13,-0.26875 0,0 m -17.20375,-0.0625 c 0.2825,0.2825 0.33625,-0.2275 0,0 m 13.88,0.25375 c 0,0.84 0.7075,0.90375 1.15,0.5775 -0.24,-0.65875 -1.09,-0.17375 -0.19125,-0.96125 -0.33625,0.0875 -0.65625,0.215 -0.95875,0.38375 m -61.98,-0.44625 c 0.45875,0.6525 0.2275,0 0,0 m 33.32375,0.1925 c 0.58125,0.43 0.17625,-0.43 0,0 m 31.53375,0.0625 c 0.46625,0.0525 0.36,0.2025 -0.32,0.44875 0.34875,-0.46125 0.22125,-0.46125 -0.385,0 0.68375,0.0275 1.0925,0.405 1.85625,-0.575 -0.40125,-0.20625 -0.78375,-0.16375 -1.15125,0.12625 m -7.86625,-0.255 c 0.30125,0.21125 0.28625,-0.0912 0,0 m -57.11875,-0.1925 c 0.1075,0.215 0.20375,0 0,0 m 48.355,0.1275 c 0.0638,-0.0412 0.1275,-0.0838 0.19125,-0.1275 -0.0638,0.0438 -0.1275,0.0863 -0.19125,0.1275 m 21.1075,0.5775 c 0.46625,0.33125 0.002,0.36125 0.57375,0.83125 -0.74375,0.25 -0.59125,-0.0625 -0.70375,-0.44875 -0.55125,0.2175 -0.695,0.92375 -0.9575,-0.1275 -0.56,0.83 0.2175,0.94625 -1.53625,0.63875 0.4375,-0.20375 0.715,-0.54375 0.83125,-1.0225 -0.7325,0 0.18875,-1.02625 0.5775,-0.32125 -0.42125,0.16125 -0.68375,0.13875 -0.38375,0.5125 -0.0175,-0.91 1.0875,-0.15875 1.15,-0.12875 0,-0.64625 0.295,-0.085 0.44875,0.0662 m -23.9225,-0.2575 c 0.43125,0.87125 0.83875,0.66875 1.1525,-0.32 -0.37875,0.26 -0.915,0.53625 -0.70375,-0.1925 -0.15,0.17125 -0.3,0.34125 -0.44875,0.5125 m 9.6575,0.44875 c 0.65,0.39 0.44125,0.34 0.89625,-0.38375 -0.62,-0.28875 -0.7025,0.47875 -0.57375,-0.5775 -0.2875,0.265 -0.395,0.585 -0.3225,0.96125 m -9.0175,-1.02375 c 0.27,0.26375 0.51875,0 0,0 m 15.8,0.0625 c -0.17125,-0.02 -0.3425,-0.0425 -0.51375,-0.0625 0.3725,0.69375 1.40625,0.91375 1.40625,0.0625 -0.8475,0.4325 -0.7,-0.19875 -0.8925,0 m -5.56625,-0.0625 c 0.2175,0.17375 0.36,0.1475 0.57625,0 -0.075,-0.255 -0.26625,-0.255 -0.57625,0 m 9.3375,0.0625 c 0.21,0.51125 0.81625,0.0788 0.96125,-0.19125 -0.32,0.0638 -0.64125,0.12875 -0.96125,0.19125 m -32.235,-0.12625 c 0.02,-0.0438 0.0425,-0.085 0.0638,-0.1275 -0.115,0.0838 -0.0375,0.0688 -0.0638,0.1275 m 14.19875,0 c 0.12875,0.10625 0.25625,0.2125 0.38375,0.31875 -0.0225,-0.4575 -0.15125,-0.5625 -0.38375,-0.31875 m 7.86625,-0.1275 c -0.0175,0.25 0.17375,0.37875 0.575,0.3825 -0.0163,-0.135 0.005,-0.26125 0.0662,-0.3825 l -0.64125,0 m 14.26375,0.1275 c 0,0.28375 0.4475,0.23125 0.4475,-0.1275 -0.17,-0.02 -0.31875,0.0225 -0.4475,0.1275 m -24.945,-0.1925 c 0.0763,0.7775 -0.0888,0.815 0.57375,0.705 -0.175,-0.23125 -0.14875,-0.705 -0.57375,-0.705 m 25.585,0.065 c 0.0438,-0.0225 0.0875,-0.0437 0.1275,-0.065 -0.04,0.0213 -0.0837,0.0425 -0.1275,0.065 m 2.68625,-0.1275 c -0.0888,0.33625 0.0987,0.46125 0.38375,0.31875 -0.0775,-0.2275 -0.20625,-0.33375 -0.38375,-0.31875 m -78.48,-0.0638 c 0,0.455 -0.2225,-0.49875 0,0 m 52.19125,-0.12875 c 0.155,0.63 0.435,0 0,0 m 22.70625,0 c -0.57375,0.76375 0.46875,0 0,0 m 1.85625,0.12875 c 0,0.2125 0.6625,-0.345 0,0 m -10.17,0 c 0.0888,0 0.37,0.1925 0.3225,-0.1475 -0.0537,-0.29375 -0.16125,-0.245 -0.3225,0.1475 m 8.88875,-0.3225 c -0.0638,0.2375 0.0437,0.30125 0.32125,0.19375 -0.0238,-0.2625 -0.13125,-0.32625 -0.32125,-0.19375 m -73.8075,-0.125 c -0.0213,0.23375 0.17125,0.2975 0.575,0.19125 -0.1275,-0.2175 -0.32,-0.2825 -0.575,-0.19125 m 49.3775,0 0.1275,0 -0.1275,0 z m 8.31375,0 c 0.1125,0.21 0.1975,0 0,0 m -6.59,0.125 c 0.0437,-0.0638 0.0875,-0.125 0.13,-0.18875 -0.13125,0.11375 -0.0487,-0.002 -0.13,0.18875 m 23.22,-0.125 c -0.0637,0.35125 0.0438,0.585 0.32,0.70125 0.1975,-0.65875 0.0913,-0.89375 -0.32,-0.70125 m -19.83,-0.13 c 0.265,0.50125 0.29,0 0,0 m 16.18375,0.255 c 0.18,0 0.2725,-0.54 0,0 m -69.52625,-0.3175 c 0.175,0.10125 0.0925,0.1825 0.2575,0 l -0.2575,0 z m 36.075,0 c -0.1775,0.5325 0.3575,0 0,0 m 30.89375,0.44625 c 0.255,0.47125 0.74375,-0.14875 0.3825,-0.51 -0.1275,0.17 -0.255,0.34 -0.3825,0.51 m 1.9175,-0.44625 c -0.34375,-0.2225 -0.5775,0.0125 -0.70375,0.70375 0.71125,0.0912 0.945,-0.14375 0.70375,-0.70375 m -17.525,-0.12875 c 0.0813,0.3525 -0.0838,0.205 0,0.64 0.25625,-0.1425 0.40375,-0.64 0,-0.64 m 7.16375,0.8325 c 0,0.39125 0.6475,-0.09 0.76625,-0.32 -0.19375,-0.4225 -0.32,0.095 -0.32,-0.5125 -0.1575,0.2725 -0.30625,0.55 -0.44625,0.8325 m 1.92,-0.64125 c -0.10625,0 0,-0.44375 0,0 m 7.67375,-0.19125 c -0.1675,0.40625 -0.11375,0.49 0.16,0.2525 0.18375,-0.2475 0.13125,-0.3325 -0.16,-0.2525 m -69.33375,-0.065 c 0,0.40625 0.4775,0 0,0 m 68.88625,0.065 c 0.0425,-0.0213 0.085,-0.0425 0.12875,-0.065 -0.0437,0.0225 -0.0862,0.0438 -0.12875,0.065 m 5.75625,-0.065 c -0.165,0.34875 0.34625,0 0,0 m -74.13,0.065 c 0.18875,-0.0838 0.0763,0.002 0.19125,-0.12625 -0.18875,0.0812 -0.0763,-0.005 -0.19125,0.12625 m 69.0775,-0.065 c 0.19875,0.0987 0.24125,-0.2225 0,0 m -19.5075,0.19375 c -0.17,0.0638 -0.34,0.12875 -0.51125,0.1925 -0.085,-0.42 -0.01,-0.54375 0.44625,-0.575 -0.09,0.14875 -0.0688,0.27625 0.065,0.3825 m -5.69,-0.44875 c -0.1475,0.11125 -0.17,0.23875 -0.0688,0.385 0.26375,-0.0838 0.4675,-0.385 0.0688,-0.385 m 29.8675,0.1275 c 0.3975,-0.19 0.0987,-0.385 0,0 m -20.78875,1.7925 c 0.235,0.2475 0.2125,0.155 0.44875,0.38375 0.28125,-0.8475 -0.59625,-0.1175 0.19125,-0.89625 -0.09,-0.1425 -0.2175,-0.18625 -0.3825,-0.1275 0.52375,-1.195 0.5725,-0.455 -0.12875,-1.47125 -0.345,0.475 -0.6,1.6225 -0.12875,2.11125 m 6.395,-2.11125 c 0.1425,0.41 0.2725,0 0,0 m 0.9625,0 c 0,0.4075 0.65375,0 0,0 m 1.21375,0.1275 c 0,0.25125 0.18,0.38 0.32,0.13 -0.0387,-0.295 -0.14625,-0.3375 -0.32,-0.13 m -17.78,-0.19125 c 0.17375,0.0987 0.09,0.1825 0.255,0 l -0.255,0 z m 16.82125,0.89625 c 0.26125,-0.0462 0.5175,-0.025 0.7675,0.0612 0.0138,-0.40875 -0.1575,-0.72875 -0.5125,-0.9575 -0.075,0.30125 -0.16,0.6 -0.255,0.89625 m -8.5075,-0.8325 c -0.69375,0.13375 -0.0937,-0.195 0,0 m 22.835,0.0625 c 0.0412,-0.0625 0.085,-0.12625 0.12625,-0.19125 -0.0412,0.065 -0.085,0.12875 -0.12625,0.19125 m -14.71125,-0.12625 c 0.12,-0.0912 0.0375,-0.006 0.12875,-0.12875 -0.0437,0.0425 -0.085,0.0875 -0.12875,0.12875 m 12.985,0.3825 c -0.2375,0.25 -0.285,0.24375 -0.44875,-0.0613 -0.0513,0.44125 -0.2225,0.65375 -0.5125,0.63625 -0.31125,-0.4175 0.0563,-0.60125 -0.38375,-0.83125 0,1.58625 0.71,1.1425 1.53375,0.38375 -0.08,-0.215 -0.165,-0.4275 -0.255,-0.63875 -0.1275,0.185 -0.10625,0.355 0.0662,0.51125 m -8.38,-0.575 c -0.0562,0.25 -0.20625,0.335 -0.4475,0.25625 0.56875,0.81 0.75625,0.39875 1.59875,0.51125 0,0.28 -1.65125,-0.7675 -1.15125,-0.7675 m -13.88,-0.13 c 0.14125,0.44625 0.1,0 0,0 m 14.20125,0.38625 c 0.19125,0.02 0.38125,0.0425 0.57375,0.0625 -0.1425,-0.5775 -0.335,-0.5975 -0.57375,-0.0625 m 1.66125,-0.32 c 0.5375,0.40625 0.18625,-0.0912 0,0 m -64.85625,0.1275 c -0.18,0.4375 -0.475,0.16625 -0.64,-0.19375 0.23375,-0.12625 0.4475,-0.0612 0.64,0.19375 m 52.19125,-0.255 c 0.4125,0.38875 0.1525,0 0,0 m 6.52625,0 c 0.19875,0.17875 0.4325,0.285 0.7025,0.31875 -0.0913,-0.35875 -0.325,-0.465 -0.7025,-0.31875 m 9.5925,0.0612 c 0.20375,0.31375 0.005,0.3925 -0.31875,0.3225 0.2625,0.44375 0.71875,0.205 1.02125,-0.12875 -0.17875,-0.2725 -0.41375,-0.33625 -0.7025,-0.19375 m -6.3325,-0.0612 c 0,0.45125 0.1525,0.38375 0.5125,0.38375 0.0488,-0.53125 -0.12125,-0.65875 -0.5125,-0.38375 m -10.80875,-0.065 c 0.0412,-0.0425 0.0838,-0.0862 0.12875,-0.12875 -0.12,0.0912 -0.0387,0.008 -0.12875,0.12875 m 16.94875,0.065 c 0,0.31 0.46875,-0.6425 0,0 m 3.00625,0 c 0.17625,0 0.25875,-0.3825 0,0 m -14.26375,-0.25625 c 0.12375,0.3475 0.295,0 0,0 m 1.28125,0.0625 c 0,0.33625 0.4075,-0.19125 0,0 m 7.93125,-0.0625 c -0.28,0.57625 0.74,0 0,0 m 3.005,0.25625 c 0.71625,0 -0.395,0.31875 0.44875,0.31875 -0.15375,-0.455 -0.195,-0.81375 -0.44875,-0.31875 m 1.4075,-0.25625 c -0.0862,0.17125 -0.1725,0.34 -0.2575,0.51125 0.11125,-0.0488 0.5825,-0.51125 0.2575,-0.51125 m -66.775,-0.12875 c 0.11,0.22 0.19875,0 0,0 m 59.16375,0.255 c 0.3425,0 0.11625,-0.46125 0,0 m 5.6925,-0.12625 c 0.085,-0.0425 0.17,-0.085 0.255,-0.12875 -0.085,0.0437 -0.17,0.0862 -0.255,0.12875 m -13.24,-0.255 c -0.0637,0.23375 0.0425,0.29875 0.32125,0.19125 0.0638,-0.23375 -0.0425,-0.29875 -0.32125,-0.19125 m -20.7875,-0.12875 c 0.24375,0.55125 0.48,1.105 0.70375,1.66375 0.0762,-0.04 1.21375,-0.6275 0.3325,-0.62625 -0.615,0.003 -0.4175,-1.0375 -1.03625,-1.0375 m 1.02375,0.1925 c 0.3475,0 0.11125,-0.4575 0,0 m 14.455,-0.13 c -0.55625,-0.94625 -0.645,0.7125 -0.64,0.705 0.5,1.165 1.53375,-0.075 1.0875,-0.89625 -0.14875,0.0638 -0.29875,0.1275 -0.4475,0.19125 m 19.70125,-0.19125 c -0.23375,0.58 0.1275,0.76875 0.57375,0.76875 -0.66625,-0.675 0.42375,-0.23625 0.575,-0.5775 -0.3425,-0.28125 -0.72625,-0.34625 -1.14875,-0.19125 m -3.58375,0.0638 c 0.1025,-0.2125 -0.16125,-0.25125 0,0 m 0.95875,0.64 c 0,1.39375 0.98375,-3.0125 0.5125,-0.8325 -0.17125,0.2775 -0.34125,0.55625 -0.5125,0.8325 m -18.48375,-0.8325 c 0,0.46 0.40625,-0.1225 0,0 m -5.56625,0 c -0.0213,-0.0425 -0.0412,-0.0838 -0.0613,-0.125 -0.009,0.125 -0.07,0.07 0.0613,0.125 m 14.4575,0 c 0.10625,0.12875 0.2125,0.2575 0.31875,0.38625 -0.22125,0.2175 -1.02125,-0.20125 -1.02125,0.12625 0.67,0.165 1.30875,0.08 1.91875,-0.255 -0.2875,-0.475 -0.79125,-0.3425 -1.21625,-0.2575 m -20.59625,-0.0625 c -0.13875,0.10625 -0.20375,0.235 -0.1925,0.3825 0.455,0.135 0.65625,-0.68625 0.1925,-0.3825 m -0.64,-0.1925 c -0.0188,0.27375 0.11,0.35875 0.38375,0.255 0.145,-0.29625 -0.16125,-0.255 -0.38375,-0.255 m 13.49625,0.13 0,-0.13 c -0.0575,0.11375 -0.0625,0.0175 0,0.13 m 14.19875,0 0,-0.13 0,0.13 z m -1.215,0.125 c -0.23375,-0.2175 -0.51125,-0.3225 -0.83,-0.31875 0.20875,0.63875 1.215,0.7075 1.215,0 l -0.385,0.31875 m -27.69375,-0.38125 c 0.0575,0.3725 0,0.43125 0.32,0.51 -0.325,-0.53625 -0.006,-0.32 0.76625,-0.32 0,-0.12625 -0.91875,-0.245 -1.08625,-0.19 m 33.00375,0.0625 0,-0.1275 0,0.1275 z m -17.33375,0.705 c 0.4,0.2825 0.55125,-0.475 0.4475,-0.89625 -0.2,0.2725 -0.35,0.57125 -0.4475,0.89625 m 18.2275,-0.89625 c 0.1425,0.41 0.27375,0 0,0 m -6.97125,-0.0638 c 0.29375,0.44875 0.0925,0 0,0 m -28.27,0.51125 c 0,0.4975 0.915,0.165 0.385,-0.57375 -0.12875,0.19125 -0.25625,0.38125 -0.385,0.57375 m 15.415,-0.57375 c -0.10625,0.255 -0.0638,0.36125 0.1275,0.3175 0.10625,-0.255 0.0625,-0.36125 -0.1275,-0.3175 m -13.43375,-0.13125 c -0.1775,0.54 0.4675,0 0,0 m 14.32875,0.0638 c 0.5375,0.22625 0.32625,-0.0812 0,0 m 17.07625,-0.0638 c 0.145,0.445 0.095,0 0,0 m -4.795,0 c 0,0.2625 0.22125,0.14375 0.38375,0.0638 -0.0488,-0.1875 -0.17625,-0.20875 -0.38375,-0.0638 m -11.3225,-0.1275 c 0,0.55375 0.42,0 0,0 m 17.7175,0.25875 c 0.20375,0 0.14375,-0.54625 0,0 m -65.24,-0.3225 c -0.2,0.29375 0.51375,0 0,0 m 31.9175,0.0638 c -0.33625,0.23375 -0.135,0.25875 0.19125,0.25875 0.16625,-0.3275 0.10125,-0.41375 -0.19125,-0.25875 m 7.035,0.0662 c 0,0.5075 0.81,0.80875 1.02375,0.3825 -0.3175,-0.24 -0.67125,-0.56875 -1.02375,-0.3825 m 21.23625,0.125 c 0.11125,0.0538 0.27,0.19375 0.3825,0.19375 -0.0362,-0.275 -0.2725,-0.66875 -0.3825,-0.19375 m -26.99375,-0.255 c -0.11375,-0.0838 -0.0363,-0.0675 -0.0638,-0.12625 0.02,0.0425 0.0425,0.085 0.0638,0.12625 m 0.38375,-0.12625 c 0.3,0.43375 0.085,0 0,0 m 11.83375,0 c -0.16625,0.3625 0.33,0 0,0 m 15.35,0.44875 c -0.0175,0.175 0.10875,0.26125 0.38375,0.255 -0.2325,-0.22375 -0.14625,-0.30875 0.25625,-0.255 0.0462,0.49 0,0.63375 0.19125,1.0225 -0.7575,0.1475 -0.4175,0.4575 -1.0225,0.38125 0,0.195 0.33,0.2 0.38375,0.44875 0.26125,-0.11375 0.3425,-0.4175 0.575,-0.575 0,0.4975 0.16,-0.1825 0.64,0 0,-0.64375 -0.24875,-3.16125 -1.4075,-1.2775 m 3.26125,-0.385 0,-0.13 0,0.13 z m 2.17625,-0.19125 c -0.3275,0.32 -0.4775,0.6825 -0.44875,1.0875 0.42875,-0.19625 0.87625,-0.26 1.34375,-0.19375 0.21125,0.315 -0.93125,-0.89375 -0.895,-0.89375 m -33.4525,0 c 0,0.28625 0.33375,0.69 0.70375,0.83125 -0.25,-0.8425 0.49,-0.9625 -0.70375,-0.83125 m 26.225,0.19125 c -0.0437,-0.0862 -0.0875,-0.17125 -0.1275,-0.255 -0.0575,0.16625 -0.005,0.12125 0.1275,0.255 m 3.64625,-0.19125 c 0.002,0.44125 0.21625,1.425 0.57625,1.6625 0.26625,-0.5475 0.21,-1.88 -0.57625,-1.6625 m -10.235,-0.0638 c 0.19875,0 0.11125,-0.22375 0,0 m 8.57125,-0.13125 0.1275,0 c -0.115,0.0613 -0.0163,0.0625 -0.1275,0 m -30.255,-0.12625 c 0.23375,0.2325 0.2125,-0.1025 0,0 m 8.06,0.2575 c 0.3525,0.1675 0.1025,-0.70125 0,0 m 5.245,-0.3225 0.1275,0 -0.1275,0 z m 0.83125,0.19125 c 0.23,0 0.14375,-0.3425 0,0 m 0.44625,0.13125 0.45,0 c 0.1025,0.19875 -0.0362,0.13375 -0.1275,0.3175 0.42625,0.20125 0.66125,0.1375 0.7025,-0.1925 -0.4025,0.0425 -0.55125,-0.1075 -0.4475,-0.4475 -0.1925,0.1075 -0.38375,0.215 -0.5775,0.3225 m 20.725,-0.3225 c 0.1075,0.1075 0.21375,0.215 0.32125,0.3225 0,-0.16875 0.0387,-0.135 0.12625,-0.2575 -0.14,-0.0713 -0.29,-0.0925 -0.4475,-0.065 m -34.79375,0.19125 c 0.3475,-0.1125 0.1625,-0.39 0,0 m 0.38375,-0.06 c 0.14875,0.02 0.2975,0.04 0.4475,0.06 -0.21375,-0.415 -0.3625,-0.43375 -0.4475,-0.06 m 13.55875,-0.25875 c 0.11125,0.215 0.19875,0 0,0 m 2.36625,0.1275 0,-0.1275 0,0.1275 z m 18.10125,0.065 c 0.18,0 0.245,-0.3825 0,0 m -7.1,-0.25625 c 0,0.38125 0.41,0 0,0 m 0.8325,0 c 0.0537,0.15 0.16125,0.235 0.32,0.25625 -0.0188,-0.22875 -0.12625,-0.31375 -0.32,-0.25625 m -8.5725,-0.0638 c -0.1675,0.34375 0.3475,0 0,0 m 9.7225,0.32 c 0,0.68875 0.7725,0.2575 1.21625,0.2575 0.04,-0.275 -0.045,-0.44625 -0.255,-0.51375 -0.29375,0.43125 -0.2175,0.34 -0.44875,-0.0638 -0.14125,0.1525 -0.3125,0.25875 -0.5125,0.32 m -18.48375,-0.1925 c 0.3325,0.22 0.3575,-0.3575 0,0 m 18.22875,0.1925 c -0.22125,0.2525 -0.51,0.1075 -0.51,0.44875 0.23,-0.05 0.46375,-0.0712 0.7,-0.0662 -0.12625,-0.2375 -0.19,-0.49375 -0.19,-0.76625 -0.13,0.1225 -0.13,0.25 0,0.38375 m -28.91,-0.51125 c 0.15125,0.0738 0.0825,0.16 0.19125,0 l -0.19125,0 z m 15.35,0 c 0.0537,0.38125 -0.13375,0.135 -0.57625,0.255 -0.006,0.11375 0.0362,0.19875 0.12875,0.25625 0.365,-0.0763 0.685,-0.24625 0.96,-0.51125 -0.1725,0.0575 -0.34375,0.0575 -0.5125,0 m 12.47125,0.0625 c 0.23875,0.2325 0.2075,-0.1 0,0 m -19.95625,-0.12625 c -0.006,0.17625 0.0362,0.34625 0.12875,0.51 0.16375,-0.285 0.3225,-0.51 -0.12875,-0.51 m 1.73,0.31875 c 0.0913,-0.1975 0.0263,-0.30375 -0.19375,-0.31875 -0.004,1.2125 0.625,0.41875 0.5125,1.21375 0.25,-0.14625 0.145,-0.3175 0.445,-0.3175 0.11375,0.0738 0.17875,0.17875 0.19375,0.3175 -0.5025,0.0688 -0.3825,0.1375 -0.32,0.70375 0.8,0.40875 0.715,-0.255 1.4725,-0.255 -0.11,0.3975 -0.095,0.37875 -0.44875,0.32125 0.3775,0.98625 1.23125,-0.73 0.1275,-1.2825 -0.61875,0.60625 -0.8975,-0.2775 -1.0875,-0.70125 -0.23375,0.10625 -0.4675,0.2125 -0.70125,0.31875 m 1.78875,-0.31875 c -0.0638,0.25625 0.0638,0.32 0.385,0.19125 0,-0.20875 -0.24375,-0.19125 -0.385,-0.19125 m 2.175,0 c -0.235,0.0688 -0.2775,0.22 -0.1275,0.44875 0.26125,-0.0975 0.5125,-0.64625 0.1275,-0.44875 m 0.5125,0.12625 c 0,0.47 0.5,-0.69 0,0 m 0.51125,-0.19 c 0,0.35125 0.51375,0 0,0 m 14.265,0.1275 c 0.2975,0.1775 0.42375,0.1575 0.3825,-0.0638 -0.24125,-0.22 -0.3675,-0.19875 -0.3825,0.0638 m 2.2375,0.0625 c 0.2775,0.235 0.29875,0.38375 0.0637,0.44875 0.94,-0.11625 0.69875,-0.6 -0.0637,-0.44875 m -19.44375,-0.3825 c 0.02,-0.0425 0.0412,-0.0875 0.0638,-0.13 -0.0225,0.0425 -0.0438,0.0875 -0.0638,0.13 m 18.93125,0.1275 c -0.3,-0.345 -0.2925,-0.65875 -0.19125,0.63875 0.53375,-0.34875 0.27125,-1.135 0.19125,-0.63875 m 0.5125,0 c 0.24625,0.0475 0.3725,-0.0388 0.38375,-0.2575 -0.32125,-0.0725 -0.3275,-0.0588 -0.38375,0.2575 m -19.70125,-0.1275 c -0.16375,0.23875 -0.0138,0.28125 0.44875,0.1275 -0.10125,-0.475 -0.1275,-0.35375 -0.44875,-0.1275 m 2.11125,-0.1925 c -0.17,0.0213 -0.34,0.0425 -0.51,0.0625 0.14875,-0.25 0.40375,-0.36875 0.51,-0.0625 m 15.3525,-0.2575 c 0.1525,0.36375 0.1575,0 0,0 m 4.86,0.0662 c 0.065,0.185 0.17125,0.26875 0.31875,0.25375 -0.065,-0.19875 -0.10875,-0.3625 -0.31875,-0.25375 m -6.14,-0.12625 c -0.22375,0.39875 0.60875,0 0,0 m -27.9525,0.38 c 0.295,-0.0237 0.31625,-0.195 0.065,-0.51125 -0.0213,0.17125 -0.0425,0.34125 -0.065,0.51125 m 1.40625,-0.51125 c -0.5625,0.7675 0.46,0 0,0 m 7.67625,0.13125 c 0,0.26375 0.23,0.1625 0.32125,0 -0.0425,-0.19625 -0.14875,-0.19625 -0.32125,0 m 4.73375,0 c -0.24375,0.11375 -0.125,-0.25375 0,0 m 18.165,-0.195 0,-0.1275 c -0.0575,0.11625 -0.0612,0.015 0,0.1275 m -24.69125,-0.19125 c -0.195,0.2925 0.51375,0 0,0 m 1.92,0.12875 c 0.2075,0.1025 0.2375,-0.2375 0,0 m 4.48,-0.19 c -0.0675,0.28375 -0.32,0.3975 -0.32,0.63625 -0.665,-1.1 -1.27375,2.045 -0.32125,1.79125 -0.65375,0.86875 0.61625,1.7925 1.6,1.7925 0.09,-0.3225 0.005,-0.53625 -0.2575,-0.64 0,0.53125 -0.3225,0.02 -0.70125,0.0625 0.205,-0.60375 0.70125,-0.155 0.70125,-0.89375 -0.19125,0.0438 -0.3825,0.085 -0.575,0.1275 0.10625,0.24375 0.2025,0.12625 -0.065,0.38375 -0.21,-0.415 -0.1225,-0.3825 -0.0613,-0.8325 -0.27,0.23125 -0.28625,0.20625 -0.57625,0 0.4825,-0.38625 1.155,-1.15 0.0625,-1.15 0,-0.46375 1.13875,-0.4025 1.4725,-0.45 -0.16,-0.545 -0.39125,-0.0675 -0.76875,-0.445 0.93,0 0.1775,-0.3825 -0.19,-0.3825 m -13.305,0.31625 c 0.41375,0.13625 0.31375,0.34875 0.7675,0.2575 -0.0312,-0.235 -0.11625,-0.44875 -0.25625,-0.64125 -0.17,0.12875 -0.34,0.25625 -0.51125,0.38375 m 32.49,-0.31625 0,-0.13 0,0.13 z m -3.83375,-0.13 c 0.18,0.0925 0.36875,-0.24625 0,0 m 3.1975,-0.1275 c 0,0.53 0.48625,0 0,0 m -15.60875,0.1275 c 0.17625,0 0.28,-0.5375 0,0 m -8.95375,-0.385 c 0.0762,0.23125 0.20375,0.33875 0.3825,0.32375 10e-4,-0.29625 -0.1275,-0.4025 -0.3825,-0.32375 m 13.36625,-0.0625 c 0,0.4525 0.565,-0.2025 0,0 m -14.13375,0.51 c 0.66125,0 0.66875,0.0662 0.1925,-0.63875 -0.065,0.21375 -0.1275,0.42625 -0.1925,0.63875 m 6.0125,-0.70125 c 0.10875,0.21875 0.20125,0 0,0 m -0.83125,-0.0663 c 0.0537,0.20125 0.1825,0.26625 0.38375,0.19375 -0.0975,-0.155 -0.225,-0.21875 -0.38375,-0.19375 m 19.69875,-0.0637 c 0.315,0.61375 0.0813,0 0,0 m -10.36125,-0.25625 c 0.1575,0.3625 0.15625,0 0,0 m -14.00625,-0.12625 c 0.17375,0.10125 0.09,0.1825 0.255,0 l -0.255,0 z m 12.4725,0.12625 c 0.18875,-0.0813 0.075,0.004 0.19,-0.12625 -0.065,0.0425 -0.12875,0.0825 -0.19,0.12625 m 6.01125,0.065 c 0.44625,-0.10875 0.14,-0.4025 0,0 m -5.31,-0.25625 c 0.18125,0.5025 0.45375,-0.215 0,0 m -5.3075,0 c -0.21,-0.15 0,-0.21125 0,0 m 2.11,0 c -0.0625,0.2125 0.0212,0.2775 0.25625,0.19125 -0.0275,-0.34875 -0.1125,-0.4125 -0.25625,-0.19125 m 1.60125,0 c 0.0187,-0.04 0.0412,-0.0837 0.0625,-0.1275 -0.0213,0.0438 -0.0438,0.0875 -0.0625,0.1275 m -4.86375,-0.44625 c -0.1375,0.0362 -0.0812,-0.002 -0.12625,-0.065 0.0437,0.0213 0.085,0.0412 0.12625,0.065 m 21.6825,-0.065 c 0.24125,0.2225 0.20125,-0.0925 0,0 m -64.08875,-0.1275 c 0.11625,0.175 0.15875,0.36625 0.12875,0.575 0.4975,0 0.3275,-0.575 -0.12875,-0.575 m 43.175,0.51125 c -0.38625,1.00625 0.96875,0.125 1.15125,0.0638 -0.34625,0.47375 -0.2625,0.32 0.51125,0.32 0,-0.0838 -0.32875,-0.31 -0.3825,-0.38375 0.195,0.0113 0.32375,-0.0738 0.3825,-0.25625 -0.66,-0.3775 -1.085,-0.10375 -1.6625,0.25625 m 3.90125,-0.38375 c 0.0225,-0.04 0.0425,-0.085 0.0638,-0.1275 -0.0213,0.0425 -0.0413,0.0875 -0.0638,0.1275 m 16.1825,0.25625 c -0.105,0.4125 -0.34,0.455 -0.70375,0.1275 0.095,0.22875 0.1175,0.46375 0.0638,0.705 1.38,0.425 0.25,-2.00125 0.64,-0.8325 m -17.27125,-0.19125 c 0.14375,0.2775 0.26375,0.003 0.32125,-0.1925 -0.1525,-0.12875 -0.26,-0.0662 -0.32125,0.1925 m 17.4625,-0.38625 c 0.10625,0.3175 0.61125,0 0,0 m -22.44875,0.12875 c 0.25625,0 0.14625,-0.5525 0,0 m 3.26125,-0.12875 0,-0.12875 0,0.12875 z m 4.41125,-0.12875 c 0,0.2475 0.175,0.2925 0.12875,0.5775 0.40375,-0.13125 0.28,-0.5775 -0.12875,-0.5775 m -1.91625,-0.0625 c -0.0412,0.2575 -0.3125,1.1625 -0.0637,1.28 -0.0288,-0.11875 -0.007,-0.225 0.0637,-0.32 0.6425,0.2575 1.31,0.99875 0.5125,-0.8975 -0.135,0.0388 -0.22,0.12375 -0.2575,0.2575 0.055,-0.27625 -0.0312,-0.3825 -0.255,-0.32 m -6.39625,0 c 0.39875,-0.1975 0.0962,-0.37625 0,0 m 1.15125,0.0625 c 0.0612,0.81 0.17,1.085 0.95875,0.6425 -0.0475,0.27625 -0.19125,0.2375 -0.19125,0.51 0.745,0 0.7675,-0.1775 0.7675,-0.895 -0.535,0.10375 0.19375,0.2575 -0.51125,0.2575 -0.0125,-0.285 0.0288,-0.5625 0.12625,-0.83125 -0.35625,0.19875 -0.74,0.305 -1.15,0.31625 m 1.6625,-0.18875 c 0.02,-0.0425 0.0425,-0.085 0.0638,-0.1275 -0.0213,0.0425 -0.0438,0.085 -0.0638,0.1275 m 4.7325,1.08625 c 0.91375,-0.39875 0.50125,-0.63125 0.065,-1.28 -0.0213,0.4275 -0.0425,0.8525 -0.065,1.28 m -1.855,-1.34375 c -0.14625,0.28625 -0.0888,0.34 0.17,0.165 0.24625,-0.18875 0.19,-0.24375 -0.17,-0.165 m 3.19875,0 c -0.12,0.105 -0.1625,0.2325 -0.12875,0.38375 0.285,-0.0925 0.60875,-0.38375 0.12875,-0.38375 m 1.7925,0 c 0.0775,0.0525 0.2425,0.2575 0.31875,0.2575 -0.055,-0.41375 -0.16125,-0.49875 -0.31875,-0.2575 m -8.12375,-0.445 c -0.3275,0.86125 0.4725,0.72875 0.31875,1.46875 0.24125,-0.1925 1.54375,-1.34375 0.4475,-1.34375 0.53125,0.53875 0.215,0.38375 -0.63875,0.38375 0.41875,-0.45375 0.37625,-0.6225 -0.1275,-0.50875 m 2.94125,0.19 c 0.49125,0.35375 0.64,0.29 0.4475,-0.19 -0.13625,0.095 -0.285,0.15875 -0.4475,0.19 m -4.66875,0 c 0.17625,0 0.275,-0.5425 0,0 m 17.46125,-0.12875 c -0.02,-0.0612 -0.04,-0.1275 -0.0637,-0.19 -0.0525,0.1575 -0.025,0.0538 0.0637,0.19 m -4.22375,-0.1275 c 0.235,-0.06 0.13375,0.006 0.2575,-0.1275 -0.0825,0.0438 -0.17,0.085 -0.2575,0.1275 m -3.96375,0.44875 c 0.36125,-0.185 0.10625,-0.41125 -0.0637,-0.7025 0.0213,0.23375 0.0425,0.46875 0.0637,0.7025 m -6.20375,-0.7675 c 0.20875,0.50375 0.47625,0 0,0 m 8.44375,0 c 0,0.44 0.67125,0 0,0 m -51.36375,0.065 c 0.2025,0 0.11,-0.22 0,0 m 17.65625,-0.12875 c 0.21125,0.0975 0.2275,-0.235 0,0 m 36.20125,-0.1275 c 0,0.415 0.50625,0 0,0 m -9.33875,-0.13 c 0.135,0.14125 0.19875,0.3125 0.19125,0.5125 0.10125,0.0125 0.18625,-0.03 0.25625,-0.12625 0.0163,-0.3575 -0.13375,-0.48625 -0.4475,-0.38625 m 1.98375,0.70625 c 0.0387,0.1225 0.7475,0.3825 0.63625,0.3825 0.11375,-0.075 0.1775,-0.1825 0.1925,-0.32125 -0.3675,0.33 -0.47375,0.0738 -0.31875,-0.7675 -0.17,0.23625 -0.34125,0.47 -0.51,0.70625 m -4.15875,-0.76875 c 0,0.5025 0.33875,0 0,0 m 18.16625,0.12875 c 0.20125,0 0.145,0.145 0.31875,0.255 -0.0688,-0.5025 -0.175,-0.58875 -0.31875,-0.255 m -14.77625,1.085 c 0.54375,0.30375 0.23375,-1.26125 0.19375,-1.3425 -0.23875,0.42125 -0.3025,0.86875 -0.19375,1.3425 m 13.24,-1.15125 c 0.17875,0 0.27625,-0.53625 0,0 m -6.01125,-0.575 c 0,0.57125 0.47125,0 0,0 m -2.04625,0.0662 c 0.14625,0.4775 0.57625,-0.30875 0,0 m -8.44375,0.19125 c 0,0.34125 0.36875,-0.29125 0.385,-0.385 -0.1775,0.0812 -0.305,0.21 -0.385,0.385 m 14.71125,-0.1275 c 0.1875,0 0.13625,-0.5725 0,0 m -13.94375,-0.32125 c -0.33,0 0.0187,0.19125 0.1925,0.19125 0.1575,-0.355 0.0937,-0.41875 -0.1925,-0.19125 m 12.665,-0.12875 c -0.16125,0.2975 0.79375,0 0,0 m 6.2675,0.64125 c 0.51125,-0.15875 0.64,-0.3925 0.38375,-0.705 -0.30625,0.13375 -0.43375,0.3675 -0.38375,0.705 m -7.1,-0.76875 c 0,0.32375 0.535,-0.3675 0,0 m -5.63,-0.1925 c -0.0625,0.2025 0.025,0.2875 0.25875,0.25625 0.045,-0.3125 -0.0413,-0.39875 -0.25875,-0.25625 m 5.18375,-0.12875 c 0.345,0.23125 0.21625,-0.21 0,0 m -5.5025,-0.0625 c 0.065,-0.0425 0.1275,-0.085 0.19375,-0.12875 -0.1925,0.0838 -0.0788,-10e-4 -0.19375,0.12875 m 6.0775,-0.255 c 0.0625,-0.045 0.1275,-0.085 0.19125,-0.12875 -0.0637,0.0438 -0.12875,0.0838 -0.19125,0.12875 m -3.965,-0.0663 c 0.57125,0.44875 0.18,-0.4375 0,0 m 1.72625,-0.3825 c -0.17375,0.53 0.35,0 0,0 m -8.1875,-0.12875 c 0,0.36875 0.49375,0 0,0 m 19.7,-0.51 c 0,0.41375 0.33375,0 0,0 m -31.3425,-0.575 c 0.21,0.49875 0.40125,0 0,0 m 31.6625,-0.0662 c -0.18875,0.36875 0.34625,0 0,0 m -32.04375,-0.125 c 0.22375,0.235 0.37375,0 0,0 m 32.62,0 0,-0.13 0,0.13 z m 0.1275,-0.2575 c 0,0.39 0.5575,0 0,0 m -60.12375,-0.12875 0.1275,0 -0.1275,0 z m 43.045,-0.19125 c 0,0.3725 0.3725,0 0,0 m 6.3975,0.0637 c 0.0637,-0.0213 0.1275,-0.0412 0.19125,-0.0637 -0.0637,0.0225 -0.1275,0.0425 -0.19125,0.0637 m -13.305,-0.1275 c 0,0.4 0.8275,0 0,0 m 24.05,0 c -0.33875,0.50125 0.19125,0 0,0 m 0,-0.4475 c -0.1825,0.34375 0.35125,0 0,0 m -10.49,-0.1275 c 0.17875,0.0525 0.10875,0.0312 0.25625,-0.065 -0.085,0.0213 -0.1725,0.0425 -0.25625,0.065 m 8.82875,0.0638 c 0.225,0 0.14,-0.345 0,0 m -57.2475,-0.32 c 0.0213,-0.0425 0.0437,-0.085 0.065,-0.13 -0.0213,0.045 -0.0437,0.0875 -0.065,0.13 m 58.845,0.1275 c 0.2525,0 0.12,-0.4825 0,0 m -1.4725,-0.64 c -0.0962,0.215 -0.0538,0.3425 0.12875,0.3825 0.18125,-0.31875 0.13875,-0.44625 -0.12875,-0.3825 m 0.76875,0.12875 c 0,0.455 0.5525,-0.59875 0,0 m -42.02375,-0.25625 c -0.0525,0.315 0.0762,0.29375 0.385,-0.0638 -0.095,-0.13625 -0.22375,-0.115 -0.385,0.0638 m 8.18875,-0.1275 c 0.19875,0.175 0.22625,0 0,0 m 32.04375,0.1275 c 0.2,0 0.10875,-0.21875 0,0 m -0.57625,-0.19125 c 0.004,0.22625 0.11,0.27 0.31875,0.1275 0.15125,-0.26125 0.045,-0.30375 -0.31875,-0.1275 m -31.02125,-0.0638 c 0,0.39125 0.6175,-0.15 0,0 m 31.85375,-0.065 c 0.0213,-0.0438 0.0425,-0.0863 0.0638,-0.12625 -0.115,0.0825 -0.0375,0.0675 -0.0638,0.12625 m 0.3825,-0.12625 c -0.175,0.34 0.35625,0 0,0 m -34.41125,0 c 0.24,0.225 0.24875,-0.12875 0,0 m 1.4075,0.12625 c 0.0975,0 0.14,-0.61625 0,0 m 34.66875,-0.2575 c -0.0375,0.58125 0.35875,0.6725 -0.195,0.7675 0.065,0.18625 0.1725,0.2725 0.32,0.25875 0.0188,-0.16625 0.21625,-1.02625 -0.125,-1.02625 m -35.82125,0.195 c -0.02,0.2325 0.17125,0.275 0.57625,0.1275 -0.1975,-0.7675 -0.4875,0.63375 -0.32,-0.51375 -0.085,0.1275 -0.17,0.2575 -0.25625,0.38625 m 34.66875,-0.25625 c 0.115,0.4075 0.2425,0.3425 0.3825,-0.19125 -0.1275,0.0637 -0.255,0.12875 -0.3825,0.19125 m 1.0225,-0.19125 c 0.0437,0.18625 0.10625,0.16875 0.19375,0 l -0.19375,0 z m -54.49375,-0.065 c 0.1425,0.44125 0.095,0 0,0 m 3.06875,0.1925 c 0,-0.09 0.0637,0.0338 0,0 m 15.73375,-0.38375 c -0.1725,0.52 0.5,0 0,0 m 33.5175,0 c -0.0937,0.26 -0.009,0.40875 0.25625,0.4475 -0.0962,-0.2675 0.075,-0.4475 -0.25625,-0.4475 m -27.9525,-0.0662 c -0.2575,0.56125 0.62625,0 0,0 m 27.63125,0.38375 c 0.21125,-0.05 0.2325,-0.19875 0.0637,-0.4475 -0.0213,0.15 -0.0425,0.29875 -0.0637,0.4475 m -51.295,-0.12625 0.4475,0 c 0.007,-0.16625 -0.0575,-0.29375 -0.19125,-0.3825 -0.085,0.1275 -0.17125,0.255 -0.25625,0.3825 m 53.4075,-0.3825 c 0.2325,0.4625 0.30375,0 0,0 m -34.92375,-0.13 c 0.17,0.155 0.36125,0.17625 0.575,0.0638 0.0625,-0.33875 -0.13,-0.35875 -0.575,-0.0638 m 4.86125,-0.1275 c -0.1075,0.16625 -0.235,0.3175 -0.3825,0.44875 0.4275,0.0688 0.875,-0.44875 0.3825,-0.44875 m 27.7575,0.1275 0,-0.1275 c -0.0563,0.115 -0.06,0.0163 0,0.1275 m -28.07875,0 c -0.0613,-0.085 -0.12625,-0.17125 -0.1925,-0.25375 -0.09,0.17625 0.0425,0.15125 0.1925,0.25375 m -23.215,-0.3825 c -0.0862,0.23375 -0.0212,0.3175 0.19125,0.255 0.085,-0.235 0.02,-0.31875 -0.19125,-0.255 m 18.1,-0.0625 c 0,0.4 0.48,0 0,0 m 0.32,0.125 c 0,0.2975 0.55375,-0.38 0,0 m 1.08625,-0.255 c -0.1525,0.1525 -0.1075,0.2975 0.0663,0.38375 0.3825,-0.345 0.36125,-0.4725 -0.0663,-0.38375 m 33.58,0 c 0.0438,0.18625 0.10625,0.17125 0.1925,0 l -0.1925,0 z m -31.72625,-0.1275 c 0.0362,0.17875 0.1425,0.28625 0.32125,0.32 -0.055,-0.1225 -0.16875,-0.32 -0.32125,-0.32 m 31.2775,0.065 c 0.3675,0.25625 0.62375,-0.1075 0,0 m -32.6825,-0.13 c -0.1325,0.39125 0.815,0.51375 1.0875,0.51375 0,-0.36875 -0.2325,-0.3425 -0.57625,-0.51375 0.20125,0.29625 0.0975,0.13625 -0.065,0.3225 0.0425,-0.34 -0.10625,-0.4475 -0.44625,-0.3225 m 1.405,0 0,-0.1275 0,0.1275 z m -3.58125,-0.19125 c 0.31875,0.42625 0.2175,0 0,0 m 6.78,0.0637 c 0,0.4375 0.565,-0.1875 0,0 m -7.29125,-0.0637 c 0.005,0.22625 0.11125,0.26875 0.32,0.1275 0.15125,-0.26125 0.045,-0.305 -0.32,-0.1275 m 2.88,-0.13 c -0.19625,0.39125 0.65625,0 0,0 m 31.66,0.2575 c 0.55125,0.32875 0.76375,0.24125 0.63875,-0.2575 -0.2125,0.085 -0.42625,0.1725 -0.63875,0.2575 m -22.06625,-0.19125 0,-0.13 0,0.13 z m -11.64125,-0.0662 c 0.0213,-0.04 0.0425,-0.0838 0.0638,-0.12625 -0.115,0.0862 -0.0362,0.0675 -0.0638,0.12625 m 0.44625,-0.12625 c -0.2475,0.46875 0.7175,0 0,0 m 3.07125,0.12625 c 0.0213,-0.04 0.0438,-0.0838 0.0638,-0.12625 -0.11625,0.0862 -0.0362,0.0675 -0.0638,0.12625 m 31.2125,0 c -0.0937,0.195 -0.0288,0.30125 0.1925,0.32125 -0.0412,-0.275 -0.0387,-0.64125 -0.1925,-0.32125 m -45.2825,-0.0638 0,-0.1275 c -0.0587,0.11625 -0.0637,0.0163 0,0.1275 m 32.87375,-0.1275 c -0.1925,0.38375 0.5,0 0,0 m -32.49375,0 0,-0.12625 0,0.12625 z m 0.8975,-0.0625 c 0.0425,-0.02 0.0863,-0.0425 0.12875,-0.0638 -0.0425,0.0213 -0.0863,0.0438 -0.12875,0.0638 m 2.3675,0 c 0.0625,-0.02 0.12625,-0.0425 0.1925,-0.0638 -0.0663,0.0213 -0.13,0.0438 -0.1925,0.0638 m 7.67375,0.4475 c 0.3,0.89 0.99875,0.0288 1.28125,-0.51125 -0.435,0.15 -0.8625,0.32 -1.28125,0.51125 m 2.11125,-0.5775 c -0.13625,0.0763 0.13875,0.80375 0.5125,-0.0625 -0.155,0.14375 -0.32625,0.16375 -0.5125,0.0625 m -18.9325,-0.0625 c 0.19,-0.0825 0.0788,0.004 0.1925,-0.12875 -0.1925,0.0838 -0.0762,-0.003 -0.1925,0.12875 m 22.0025,0.44625 c 0.39625,0 -0.12375,-0.3325 0.5775,-0.0638 -0.30875,-0.70375 -0.5025,-0.68375 -0.5775,0.0638 m -23.08875,-0.6375 0,0.51125 c 0.095,0.07 0.20125,0.0912 0.32,0.0625 0.0962,-0.44375 -0.01,-0.635 -0.32,-0.57375 m 6.45875,-0.0612 c -0.1675,0.325 0.44125,0 0,0 m -4.02875,0.12375 c 0.17,0 0.2575,-0.37375 0,0 m 14.455,-0.19 c 0.0863,0.1525 0.0863,0.3025 0,0.4475 0.44125,0 0.365,-0.4475 0,-0.4475 m 5.6275,0.0663 c 0.0225,-0.0475 0.0437,-0.0875 0.065,-0.13 -0.0213,0.0425 -0.0425,0.0825 -0.065,0.13 m 28.975,-0.13 c 0,0.16 0.1675,0.25375 0.31875,0.25375 0.13625,-0.24875 -0.12875,-0.25375 -0.31875,-0.25375 m -49.89,-0.0625 c -0.02,0.1675 0.1075,0.21 0.38375,0.12625 -0.0438,-0.18 -0.17125,-0.22125 -0.38375,-0.12625 m 14.84,0.25375 c 0.43125,0.415 0.37125,-0.49125 0,0 m 2.81375,-0.19125 c 0.37,0.085 0.345,-0.0888 0,0 m 1.4075,-0.0625 c 0.34875,0.63875 0.43375,0 0,0 m -21.42625,-0.0663 c 0.1275,0.2525 0.17375,0.5575 0.4475,0.64 0,-0.30875 -0.0425,-0.64 -0.4475,-0.64 m 22.13,0.3825 c 0.44125,0.215 -0.36125,-1.05375 0,0 m -18.35625,-0.3825 c 0.32375,0.32375 0.43125,-0.30625 0,0 m -3.1975,0 c -0.0225,-0.0637 -0.045,-0.1275 -0.065,-0.19125 -0.0538,0.15625 -0.0238,0.0538 0.065,0.19125 m 16.56375,-0.1275 0,-0.12875 c -0.0575,0.11375 -0.0612,0.015 0,0.12875 m -7.54625,-0.0638 0,-0.1275 0,0.1275 z m 12.215,-0.1275 c -0.3475,0.1675 0.3375,-0.3025 0,0 m 1.665,0.4475 c -0.15125,-0.27 -0.3825,-0.0288 -0.12875,-0.57625 -0.8725,0.41 -0.82,0.97875 0.255,1.0875 0.0425,-0.195 0.001,-0.365 -0.12625,-0.51125 m -2.75125,-0.32 c -0.395,0.12 -0.22375,-0.125 -0.065,-0.385 0.285,-0.0612 0.30625,0.0662 0.065,0.385 m -20.46625,-0.32 c 0.2075,0 0.0987,-0.22125 0,0 m 1.34125,0.0637 c -0.555,0.13625 -0.14625,-0.47625 0,0 m -1.15,-0.32125 c 0.245,0.3525 0.5425,0.6525 0.89375,0.8975 0,-0.8375 0.73375,-0.89625 -0.3175,-0.51125 -10e-4,-0.5275 -0.19375,-0.65625 -0.57625,-0.38625 m 19.7625,0.32125 c 0.4775,0.8425 0.57875,0.55 1.21625,0.19125 -0.45625,-0.0362 -0.62625,-0.25 -0.5125,-0.64 -0.19875,0.205 -0.43375,0.35375 -0.70375,0.44875 m 2.3675,-0.575 c -0.2225,0.65625 0.29875,0.46125 0.7025,0.19125 -0.04,-0.33 -0.275,-0.39375 -0.7025,-0.19125 m -2.62125,0 c -10e-4,0.245 0.0188,0.8675 0.51,0.12625 -0.155,-0.025 -0.42,-0.2275 -0.51,-0.12625 m -19.7,0 c 0.205,0 0.1025,-0.22375 0,0 m 10.04125,-0.12875 c 0.11375,0.22875 0.34,0.47125 0.51,0.12875 -0.25,-0.0688 -0.2175,-0.12875 -0.51,-0.12875 m -8.12375,0.255 c 0.26375,0.445 0.46125,0.50375 0.83125,0.705 -0.12125,-0.35375 -0.27,-0.695 -0.4475,-1.0225 -0.12875,0.10625 -0.255,0.21125 -0.38375,0.3175 m 15.47875,-0.0612 c 0.2125,0.0425 0.42625,0.0838 0.63875,0.12625 0.0425,-0.515 -0.17,-0.5575 -0.63875,-0.12625 m 3.51625,-0.25625 c 0,0.68875 0.32125,0.6375 0.77,0.6375 0,-0.115 -0.6025,-0.6375 -0.77,-0.6375 m -11.19,0.19125 c 0,0.43 0.1975,-0.0275 0.255,-0.19125 -0.2525,-0.15375 -0.3375,-0.09 -0.255,0.19125 m -0.51375,-0.19125 c 0.29125,0.58125 0.2775,-0.2775 0,0 m -3.965,-0.13 c 0.0225,-0.0412 0.0425,-0.085 0.0638,-0.1275 -0.0213,0.0425 -0.0413,0.0862 -0.0638,0.1275 m 46.755,0.255 c 0.0437,-0.125 0.0875,-0.255 0.13,-0.3825 -0.1325,0.13 -0.10875,0.11375 -0.13,0.3825 m -50.84875,-0.44625 c 0.1525,0.075 0.0825,0.15875 0.19125,0 l -0.19125,0 z m 39.97625,0.12875 c 0,0.3125 -0.38625,-0.465 0,0 m -39.33625,-0.385 c -0.22625,0.355 -0.14125,0.61125 0.25625,0.76875 -0.0863,-0.46 0.325,-0.76875 -0.25625,-0.76875 m 1.0875,0 c -0.24375,0 0.40375,0.6025 0.575,0.0625 -0.1925,-0.1475 -0.38375,-0.1675 -0.575,-0.0625 m 21.365,-0.0637 c 0.10375,0.3375 0.32875,0 0,0 m -1.72625,0 c 0.37125,0.13 0.12375,-0.54625 0,0 m -19.12625,-0.2575 c 0.0412,-0.02 0.0825,-0.0412 0.1275,-0.065 -0.045,0.0238 -0.0863,0.045 -0.1275,0.065 m 47.7125,0.0662 c -0.5825,0.23625 1.0875,0.7375 1.0875,0.0638 -0.3475,0.0312 -0.68875,0.095 -1.0225,0.19125 0.14125,-0.41625 0.1575,-0.5025 -0.065,-0.255 m -31.65875,-0.0662 c 0.1975,0 0.11125,-0.21125 0,0 m 32.0425,-0.18875 c -0.13375,0.1925 -0.07,0.2775 0.19375,0.255 0.0962,-0.1775 0.01,-0.255 -0.19375,-0.255 m -49.0575,0 c 0.1925,-0.0838 0.0775,0.004 0.1925,-0.13125 -0.1925,0.0863 -0.0775,-0.002 -0.1925,0.13125 m -1.5975,-0.195 c 0,0.42875 0.3625,0 0,0 m 2.55875,-0.12375 c -0.15,0.43125 0.29125,0 0,0 m 7.5475,-0.12875 c -0.2225,0.195 -0.15875,0.3 0.19,0.31625 0.18375,-0.37375 0.12,-0.47875 -0.19,-0.31625 m 28.91,-0.19375 c 0.295,0.44 0.23,0 0,0 m -14.83875,-0.0637 c -0.18,0.52 0.50375,0 0,0 m 0.9575,0.12875 c 0,0.54875 0.43125,-0.6525 0,0 m 15.735,-0.51375 c -0.1375,0.725 0.46375,0 0,0 m 9.40125,0 c -0.13875,1.13375 0.065,0.065 0.065,0.57625 0.2725,-0.0888 0.22125,-0.57625 -0.065,-0.57625 m -40.03875,-0.12625 c -0.45875,0.4575 0.62125,0 0,0 m 39.20875,-0.0663 c 0,0.17625 0.0163,0.3525 0.23625,0.20125 0.29625,-0.2025 -0.16875,-0.20125 -0.23625,-0.20125 m -29.42125,0 c 0.0625,0.12875 0.1275,0.2575 0.19125,0.38625 0.2025,-0.42125 0.1375,-0.55 -0.19125,-0.38625 m -20.14875,0 0,-0.125 c -0.0563,0.1125 -0.0613,0.0138 0,0.125 m 18.74125,-0.18875 c 0,0.36375 0.49,0 0,0 m -19.44375,0.0637 c 0.2075,0 0.0987,-0.2225 0,0 m 9.145,0.19125 c -0.145,0.33375 -0.25125,0.2475 -0.31875,-0.255 0.26,-0.15625 0.365,-0.0713 0.31875,0.255 m 1.02625,-0.38375 c 0.17875,0.0638 0.0275,0.10375 0.19,0 l -0.19,0 z m 39.6525,-0.0625 c 0.265,0.53625 0.28125,0 0,0 m 0.96,-0.0662 c 0.1,0.3475 0.32,0.49375 -0.12625,0.5775 0.065,0.18375 0.17,0.27 0.3175,0.255 0.3275,-0.64 0.26375,-0.9175 -0.19125,-0.8325 m -41.125,-0.12625 c 0.0475,0.30875 0.0925,0.3 0.3825,0.4475 -0.0188,-0.335 -0.1475,-0.48375 -0.3825,-0.4475 m 0.82875,-0.065 c 0.1825,0.4925 0.3,0 0,0 m 9.02,-0.065 c 0.485,0.505 0.3175,0 0,0 m -10.10625,0.065 c 0.0637,-0.0425 0.1275,-0.0863 0.1925,-0.12875 -0.1925,0.0837 -0.0775,-0.003 -0.1925,0.12875 m 10.5525,-0.065 c 0.19125,-0.085 0.0775,0.005 0.1925,-0.12875 -0.065,0.0438 -0.1275,0.0888 -0.1925,0.12875 m -20.40125,-0.1925 c -0.475,0.71375 -0.4125,1.055 0.19125,1.02625 -0.0512,-0.54875 -0.23125,-0.88625 0.25625,-0.64 0,-0.345 -0.115,-0.38625 -0.4475,-0.38625 m 1.0875,-0.19125 c -0.13875,0.1725 -0.0537,0.27875 0.25375,0.32 0.10625,-0.2975 0.0213,-0.40375 -0.25375,-0.32 m 9.465,0 c 0,0.41375 0.6,0 0,0 m 39.7825,-0.0638 c -0.2125,0.325 0.0188,0.5775 0.385,0.5775 -0.0337,-0.15125 -0.17125,-0.5775 -0.385,-0.5775 m -25.5825,0.0638 c 0.20125,0 0.11,-0.21375 0,0 m 26.15875,-0.12625 c 0.0337,0.17875 0.14,0.285 0.32,0.3175 -0.0538,-0.12 -0.17,-0.3175 -0.32,-0.3175 m -1.47125,0.0625 c 0,0.3375 0.6125,-0.4825 0,0 m -26.54375,-0.19375 c -0.0512,0.215 -0.1275,0.3225 0.12625,0.3225 0.1825,-0.245 0.2275,-0.3225 -0.12625,-0.3225 m 1.345,-0.18875 c 0.19,0.47875 0.29375,0 0,0 m 4.285,0 c 0.14,0.4575 0.40375,0 0,0 m 19.955,0.0625 c 0.12625,0.62375 0.46875,0.51875 0.8325,-0.0625 -0.2775,0.02 -0.55625,0.0425 -0.8325,0.0625 m -37.9925,0 0,-0.1275 0,0.1275 z m 0.89625,-0.1275 c -0.1975,0.16 -0.17625,0.24375 0.0625,0.25375 0.20875,-0.22625 0.1875,-0.31 -0.0625,-0.25375 m 17.7175,0.32 c 0.21875,-0.12 0.17125,-0.0512 0.25625,-0.32 -0.2525,0.1125 -0.17875,0.0312 -0.25625,0.32 m 20.53,-0.32 c 0,0.3875 0.48,0 0,0 m -38.8875,-0.0638 c 0.135,0.55125 0.2875,0 0,0 m 3.00625,0.19125 c 0.26125,0.13125 0.0675,-0.4025 0,0 m -3.83875,-0.1275 c 0.1925,-0.0825 0.0775,0.004 0.19375,-0.1275 -0.065,0.0425 -0.13,0.0875 -0.19375,0.1275 m 12.98375,-0.0638 0,-0.1275 0,0.1275 z m 1.79375,0 c 0.18625,0 0.13125,-0.57625 0,0 m 4.15625,-0.19125 c 0.17125,0.52625 0.33125,-0.3325 0,0 m 21.9375,0 c -0.33625,-0.2475 -0.465,-0.205 -0.38375,0.1275 0.49375,0.36 0.90625,-0.53625 0.38375,-0.1275 m -6.97125,-0.3825 c -0.025,0.31625 0.06,0.465 0.255,0.44625 0.1,-0.36 0.0137,-0.51 -0.255,-0.44625 m 0.4475,0.06 c 0,0.31375 0.675,-0.135 0,0 m -0.1925,-0.25125 c 0.045,0.1825 0.105,0.16875 0.1925,0 l -0.1925,0 z m -18.29,0 c 0,0.4575 0.49625,-0.6425 0,0 m -0.70625,-0.76875 c 0,0.3675 0.4975,0 0,0 m -4.35,-0.12875 c 0.0437,-0.0225 0.0862,-0.0425 0.1275,-0.0663 -0.0413,0.0238 -0.0838,0.0438 -0.1275,0.0663 m 2.1125,-0.0663 c 0,0.33375 0.5725,0 0,0 m 26.73625,-0.0625 c -0.14,0.17375 -0.0538,0.2375 0.255,0.19125 0.0637,-0.2125 -0.0213,-0.2775 -0.255,-0.19125 m -1.66375,-0.0625 c 0.0438,0.18625 0.10625,0.17 0.19,0 l -0.19,0 z m -24.7525,-0.0662 c 0.0463,0.23 0.1525,0.33625 0.3175,0.32 -0.0238,-0.25 -0.13,-0.35625 -0.3175,-0.32 m -9.46625,-0.19125 c 0.24625,0.38 0.17625,0 0,0 m -3.19875,0 c 0,0.60625 0.635,-0.9175 0,0 m 15.86125,-0.255 c 0.12,0.32875 0.32,0 0,0 m -1.21375,0 c 0.24125,0.23375 0.20125,-0.10125 0,0 m -14.96625,-0.0625 c 0,0.1725 0.65375,-0.33625 0,0 m 41.89375,0 c -0.18625,0 0.3425,-0.34375 0,0 m -28.08125,-0.2575 0,-0.12875 0,0.12875 z m 1.08875,-0.12875 c 0.15,0.44375 0.0913,0 0,0 m -2.43,-0.0638 c 0.0412,-0.0425 0.085,-0.0838 0.1275,-0.1275 -0.12,0.09 -0.0387,0.004 -0.1275,0.1275 m 9.53,-0.19125 c 0.12875,0.3725 0.4325,0 0,0 m 0.64,0.0638 c -0.1775,0.54125 0.565,-0.17375 0,0 m -4.98875,0 0,-0.12875 0,0.12875 z m 22.0025,-0.19125 c -0.10875,0.16625 -0.2375,0.315 -0.385,0.4475 0.43,0.07 0.875,-0.4475 0.385,-0.4475 m -0.32,0.1275 c -0.065,-0.0838 -0.1275,-0.16875 -0.19125,-0.255 -0.0925,0.1775 0.0412,0.15375 0.19125,0.255 m -25.90625,-0.32 c 0,0.405 0.4425,0 0,0 m 8.82875,-0.19125 c -0.1975,0.42 0.35625,0 0,0 m 2.49375,-0.19 c 0.105,0.21 0.205,0 0,0 m 12.72875,0 c 0.0337,0.17875 0.14125,0.285 0.32125,0.31625 -0.055,-0.12125 -0.17125,-0.31625 -0.32125,-0.31625 m -23.155,0 c 0.12375,-0.0937 0.0388,-0.009 0.13,-0.13 -0.0437,0.0425 -0.0875,0.0825 -0.13,0.13 m 7.80375,-0.13 c 0.2925,0.43 0.2325,0 0,0 m 1.79125,0.0637 c 0.0688,0.215 0.2175,0.27875 0.4475,0.19 -0.15,-0.36125 -0.29875,-0.425 -0.4475,-0.19 m 13.56,0 0,-0.12875 0,0.12875 z m -13.17625,-0.255 c 0.12,0.33 0.3175,0 0,0 m -7.93125,-0.065 c 0.36875,0.26 0.1575,0 0,0 m 21.29875,-0.12875 c 0.10375,0.22 0.20875,0 0,0 m -1.91875,-0.12625 c 0.065,-0.0238 0.12875,-0.0437 0.1925,-0.065 -0.0637,0.0213 -0.1275,0.0412 -0.1925,0.065 m -11.385,-0.12875 c 0.20625,0.23 0.255,0 0,0 m 12.72875,0 c -0.2225,0.0987 -0.08,0.21125 0,0.38375 0.335,0.0975 0.50375,-0.0512 0.51125,-0.44875 -0.155,0.14375 -0.325,0.165 -0.51125,0.065 m 0.0638,-0.8325 c -0.665,0.265 -0.20625,-0.64125 0,0 m 0.25625,-0.3825 c -0.45125,0.31125 -1.0875,-0.36375 -0.575,0.76875 0.25125,-0.41 0.57125,-0.6025 0.96,-0.5775 -0.25125,-0.33125 -0.1175,-0.23875 -0.385,-0.19125 m -1.0875,-0.0625 c 0,0.25125 0.95125,-0.16375 0,0 m -34.0925,0.0625 c 0.75,0.60375 0.18625,-0.4475 0,0 m 0.76875,-0.1925 c 0.1975,0.5275 0.385,0 0,0 m 19.1875,0.0638 c -0.59,0.5175 0.375,0.19875 0.57625,0.19125 10e-4,-0.3475 -0.19,-0.41125 -0.57625,-0.19125 m 15.15875,-0.255 c 0,0.36375 0.71625,0 0,0 m -15.2225,-0.38625 c 0.195,0.4625 0.35375,0.4675 0.5125,0 -0.16875,0.0937 -0.34,0.0937 -0.5125,0 m -19.8275,0.0662 c 0.0212,-0.0425 0.0425,-0.0862 0.065,-0.1275 -0.0225,0.0413 -0.0438,0.085 -0.065,0.1275 m 1.5975,0 c -0.5325,-0.13875 -0.0875,-0.19125 0,0 m 2.81625,-0.1275 c 0.12125,-0.09 0.04,-0.007 0.12625,-0.13 -0.0425,0.0438 -0.0825,0.0863 -0.12625,0.13 m 15.4775,0 c 0.23,0 0.1425,-0.345 0,0 m -17.90875,-0.25375 c 0.085,0.335 0.1825,0.445 0.5125,0.445 -0.0875,-0.33 -0.25875,-0.47875 -0.5125,-0.445 m 28.335,-0.0675 c -0.175,0.37 0.335,0 0,0 m 2.685,-0.0613 c 0,0.46875 0.545,0 0,0 m -29.9975,0.0613 c 0.0225,-0.0412 0.0437,-0.085 0.065,-0.1275 -0.11625,0.0863 -0.0362,0.07 -0.065,0.1275 m 1.6,0 c -0.10375,0.3275 -0.0188,0.41375 0.255,0.2575 0.0538,-0.40375 -0.0325,-0.49 -0.255,-0.2575 m -0.255,-0.255 c 0.2775,0.5325 0.26375,0 0,0 m 15.35,0 c 0.225,0.42875 0.4,0 0,0 m 11.19125,0.1275 0,-0.1275 0,0.1275 z m -27.4375,-0.19125 c 0.0412,-0.0213 0.0838,-0.0437 0.1275,-0.0637 -0.0437,0.02 -0.0863,0.0425 -0.1275,0.0637 m 1.15125,0 c 0.0437,-0.0213 0.0838,-0.0437 0.12625,-0.0637 -0.0425,0.02 -0.0825,0.0425 -0.12625,0.0637 m 28.71875,0.19125 c 0.14125,0.065 0.26875,0.15 0.38375,0.25625 -0.0638,-0.67625 -0.19,-0.76125 -0.38375,-0.25625 m -16.6925,-0.3825 c 0.0638,0.20625 0.0975,0.3625 0.32,0.255 -0.0587,-0.0738 -0.235,-0.255 -0.32,-0.255 m -0.44875,0.0625 0,-0.12625 0,0.12625 z m 15.7325,-0.12625 c 0.0425,0.0425 0.3225,0.3475 0.3225,0.12625 -0.0888,-0.2925 -0.19625,-0.335 -0.3225,-0.12625 m -11.575,0.0638 c 0,0.325 0.2125,0.0812 0.51125,0.1275 -0.0438,-0.1575 -0.1075,-0.30625 -0.1925,-0.4475 l -0.31875,0.32 m -15.0325,-0.12625 c 0.0888,-0.24375 -10e-4,-0.1325 0.1925,-0.2575 -0.0463,0.1775 0.0262,0.10625 -0.1925,0.2575 m 11.58,-0.5775 c 0,0.38 0.2675,0.46375 0.63875,0.44875 -0.155,0.175 -0.22375,0.03 -0.13,0.3175 0.15,-0.16875 0.3,-0.34 0.44875,-0.51125 -0.1675,-0.19375 -0.7175,-0.295 -0.9575,-0.255 m 0.50875,-0.32125 c 0,0.365 0.71875,0 0,0 m 0.64125,0.13 c 0.19,-0.085 0.0763,0.002 0.19125,-0.13 -0.18875,0.085 -0.0763,-0.004 -0.19125,0.13 m 13.24,-0.5125 c 0,0.81875 0.51625,0.24 0.51125,0.95875 0.27375,-0.0325 0.42625,-0.19125 0.57625,-0.19125 -0.1925,-0.70625 -0.46125,0.26625 -0.31875,-0.705 -0.30125,0.0163 -0.475,-0.0625 -0.76875,-0.0625 m 2.36625,-0.32 c 0.14375,0.43875 0.0925,0 0,0 m -26.9275,0 c 0.0625,-0.0425 0.1275,-0.085 0.19125,-0.12875 -0.0637,0.0438 -0.12875,0.0863 -0.19125,0.12875 m 8.635,-0.12875 c 0,0.47125 0.535,0 0,0 m 15.35125,0 c 0.28875,0.44375 0.0925,0 0,0 m -9.08375,-0.0637 c 0,0.395 0.66625,0 0,0 m -5.81875,-0.1275 c -0.205,0.205 -0.0662,0.38375 0.255,0.38375 0.0413,-0.13625 -0.0737,-0.38375 -0.255,-0.38375 m 16.69375,0 0.12625,0 -0.12625,0 z m -2.30375,-0.0638 c 0.0425,-0.065 0.085,-0.1275 0.1275,-0.19125 -0.13,0.11625 -0.0463,-0.002 -0.1275,0.19125 m -10.68125,-0.255 c 0.19625,0.0613 0.1775,0.0738 0.31875,-0.0637 -0.10625,0.02 -0.21375,0.04 -0.31875,0.0637 m -0.0637,0.0638 c 0,-0.30875 -0.42125,-0.14 0,0 m 1.9825,-0.0638 c 0,0.43375 0.7125,-0.3725 0,0 m -6.97125,0.0638 c 0.24875,0 0.11875,-0.47875 0,0 m 7.0975,-0.51 c 0.37125,0.0837 0.3475,-0.095 0,0 m -2.49375,-0.12875 c 0.3025,0.4425 0.0863,0 0,0 m -1.4725,-0.1925 c -0.3175,0.15 0.125,0.44625 0.3225,0.44625 0.0175,-0.33625 -0.09,-0.485 -0.3225,-0.44625 m 0.5775,0 c 0.0138,-0.0312 -0.34375,0.62 0.0987,0.33 0.2625,-0.2975 0.23,-0.4075 -0.0987,-0.33 m -4.4125,-0.065 c -0.0962,0.19875 0.15125,0.7025 0.38125,0.7025 0.0638,-0.50875 -0.0625,-0.74125 -0.38125,-0.7025 m -4.47875,0 c 0.0425,-0.0213 0.0863,-0.0437 0.12875,-0.0638 -0.0425,0.02 -0.0863,0.0425 -0.12875,0.0638 m 12.72875,0 c 0.0225,-0.0437 0.0437,-0.0863 0.0637,-0.12625 -0.115,0.0825 -0.0375,0.0675 -0.0637,0.12625 m -9.4025,-0.12625 c -0.2375,-0.24375 0.1075,-0.21 0,0 m 8.05875,0.0625 c 0.27625,0 0.15375,-0.52375 0,0 m -6.2025,-0.32 c 0.0425,0.1875 0.10625,0.17125 0.19125,0 l -0.19125,0 z m -2.945,0 c 0.1225,0.2175 0.34625,0.32 0.57625,0.32 -0.20125,-0.32875 -0.17375,-0.39625 -0.57625,-0.32 m 0.89875,-0.065 c -0.24625,0.38 0.0163,0.51375 0.3825,0.51375 0.13625,-0.29625 -0.09,-0.51375 -0.3825,-0.51375 m 8.6325,-0.0625 c -0.16875,0.53625 0.3475,0 0,0 m -10.55,-0.0637 c -0.0862,0.235 -0.0225,0.32 0.19,0.25625 0.085,-0.23375 0.0225,-0.32 -0.19,-0.25625 m 0.25125,-0.0638 c 0.04,0.1475 0.13,0.38125 0.32125,0.38125 -0.006,-0.29125 -0.1125,-0.41875 -0.32125,-0.38125 m 3.3275,0.0638 c 0.20625,0.0975 0.23625,-0.23 0,0 m 7.5475,-0.19125 c -0.10625,0.25375 -0.0638,0.36 0.12875,0.3175 0.10625,-0.25375 0.0625,-0.36 -0.12875,-0.3175 m -0.64125,0.0638 0,-0.1275 0,0.1275 z m -12.79125,-0.45 c 0.0475,0.22 0.025,0.45 0.32,0.45 0.0525,-0.3625 -0.0537,-0.51125 -0.32,-0.45 m 0.7675,0 c 0,0.42875 0.3675,0 0,0 m 1.79,0.0662 c -0.2125,0.0962 -0.29625,0.24625 -0.25125,0.4475 0.55625,-0.4675 0.64,-0.61625 0.25125,-0.4475 m 12.15375,-0.835 c 0,0.14 0.43375,0 0,0 m 0.4475,-0.3175 c 0.17875,0.16375 0.295,0.1375 0.4475,-0.0638 -0.28375,0.0613 -0.17625,0.0688 -0.4475,0.0638 m 0.51125,-0.6375 c 0.0437,-0.0462 0.085,-0.0875 0.12875,-0.13 -0.09,0.12 -0.004,0.04 -0.12875,0.13 m -21.48875,5.435 c 0.72875,-0.1575 0.355,0.26375 0.89375,0.51375 0.1375,-0.685 1.0875,-0.0387 1.615,0.0425 1.2675,0.195 0.76875,-0.68375 1.77625,-0.68375 0.10375,0.115 0.0825,0.22125 -0.065,0.31875 0.31125,-0.18875 0.19125,-0.34125 0.19125,-0.7675 -0.17125,0.0525 -0.32625,0.32125 -0.44625,0.32125 -0.47625,-0.60125 1.125,-1.99875 1.18875,-2.29375 0.32125,-1.5 1.10375,-1.96125 2.265,-0.77625 0.09,0.0288 1.50375,-0.45 2.10875,-0.45 -0.1475,0.345 -0.32,0.1325 0.0662,0.51375 0,-1.1175 1.6,0.4175 1.855,0.57625 0.23125,-0.16 0.21,-0.37375 -0.0637,-0.64 0.9575,-0.0575 0.91625,0.24125 1.2775,0.96 -0.115,-0.2475 -0.0725,-0.3975 0.12875,-0.45125 0.38,0.3475 2.1475,1.615 1.85375,0.13125 0.15,-0.12125 2.9175,-0.3225 2.1125,-0.3225 0.99,-0.7775 1.01,0.35 2.015,-0.755 0.3175,-0.35 0.52875,-1.22 0.67,-0.395 0.6575,-0.67 1.9475,-0.9075 2.7525,-1.47125 -0.18125,0.38625 -0.1175,0.59875 0.19,0.64125 0.12625,-0.745 0.4825,-0.41625 0.83125,-0.0675 -0.2175,-0.2 -0.3875,-0.2 -0.50875,0 0.6075,0.52625 1.5875,1.77625 1.34,0.44875 0.39625,0.9 0.76,0.94125 1.08875,0.12625 -0.15375,0.05 -0.28125,0.13625 -0.38375,0.26 -0.0275,-0.13 -0.0925,-0.23625 -0.19375,-0.32125 0.77375,-0.1975 1.48625,1.8025 2.55875,1.91875 -0.2875,0.97375 -0.3925,0.4 0.38375,0.8325 -0.1425,-0.25875 -0.335,-0.19125 -0.57375,-0.19125 0.19,-0.495 0.42,-0.58375 0.895,-0.5125 -0.0713,0.3625 -0.3725,0.31125 -0.25625,0.6375 0.28375,-0.095 0.455,-0.285 0.51125,-0.57375 0.37375,0.22375 0.33125,0.1625 0.44625,0.5125 -0.16125,-0.035 -0.31,-0.0975 -0.44625,-0.1925 0,1.27125 2.265,0.6525 2.86875,0.73125 0.5575,0.0738 0.77875,0.385 0.66375,0.9325 -0.11125,1.3225 0.46125,0.85125 1.25125,1.7775 0.69625,0.8175 -0.0738,1.67375 0.58875,2.05875 0.71375,0.53 1.04625,-0.26625 1.7175,0.5525 0.56625,0.6875 0.6075,1.20625 -0.18125,1.6875 0.33625,0.275 0.9075,0.7475 1.08625,1.15 -0.2625,-0.09 -0.45375,-0.004 -0.57625,0.25625 -0.0788,-0.12625 -0.0163,-0.38375 -0.12625,-0.38375 -0.64,0.78625 0.885,0.47375 1.0225,0.4475 -0.0525,0.33875 -0.0937,0.68125 -0.12625,1.0225 0.3425,-0.25125 1.55375,2.66875 1.85375,3.19875 -0.7625,0.87 1.61125,5.82125 1.91875,5.82125 -0.42625,0.0825 -0.2525,0.0338 -0.38625,0.32 0.7375,0.46375 -0.7525,-0.76625 0.8975,0.3825 -0.32625,0.23 -0.16625,1.62 0.12,1.84375 1.28625,1.00375 -0.96125,2.34 -1.78125,1.865 0.20375,1.16 0.66,2.21125 -0.83375,1.6625 0.0225,0.47 0.0437,0.93875 0.065,1.40875 0.3025,0.0175 0.49375,-0.1975 0.575,-0.6425 0,1.61 0.12125,0.56875 1.08875,0.45 0.10375,0.75875 -0.0525,0.32 0.50875,0.32 0,1.1925 -3.67,1.965 -1.5325,2.365 -0.88875,0.69375 -1.08875,1.59375 -1.08875,2.495 1.0225,0 1.22375,-0.125 2.62125,0.0662 -0.38875,0.8625 -0.5975,0.63125 -1.215,1.0225 0.56,0.3875 1.6625,0.28375 1.85625,1.21375 -1.15125,-0.455 0.85,0.65625 0.51125,0.44875 0.94875,0.01 0.645,-0.6625 0.5775,-1.34375 0.3475,0 0.91375,0.96875 0.83,1.40875 0,0.83 -2.16,0.205 -2.56,0.9575 -0.62625,0 -0.31625,-0.28625 -1.085,0.19375 -0.1075,-0.1275 -0.15125,-0.2775 -0.13,-0.4475 -0.54,0.815 -0.30625,1.44375 -1.34,0.83125 0.0538,-0.10125 0.075,-0.2075 0.0613,-0.32 0.4,0.15 0.4,0.815 0.64125,-0.0638 -0.27875,0.009 -0.0787,0.115 -0.44875,-0.065 0.12625,-0.2275 0.38375,-0.225 0.38375,-0.44625 -0.89125,-0.185 -1.97625,-0.8575 -2.92875,-0.5675 -0.385,0.1175 -2.41875,1.43875 -2.37625,1.65875 0.055,0.29125 -1.08375,0.23375 -1.365,0.7875 -0.475,0.93375 -0.13875,2.26375 0.11,3.20875 0.23125,0.875 0.5375,1.76 0.98125,2.5525 0.58875,1.05125 0.23625,2.05125 0.445,3.3225 0.65625,3.99 1.92625,7.8725 2.12875,11.935 -0.66875,-0.0137 -1.3375,-0.0287 -2.005,-0.0425 -1.52625,-0.0312 -1.015,-0.58125 -1.045,-1.8975 -0.0563,-2.475 -0.575,-5.02625 -0.8325,-7.5 -0.2,-1.9075 -0.64,-10.45375 -3.4725,-10.45375 -0.0875,-0.16 0.3025,-2.03625 -1.21625,-1.27625 0.2425,0.2325 -0.415,0.76125 -0.63875,0.89375 -0.0638,-0.23125 -0.0863,-0.46375 -0.065,-0.7025 -1.24,0 -1.22375,1.53125 -2.495,1.15125 -0.0962,0.72375 -1.20375,0.48625 -0.25625,-0.12875 0,-0.5725 -0.89625,-0.1975 -1.2125,-0.1925 0.20375,0.61 0.1675,-0.0688 0.445,0.1925 -0.60125,1.365 -0.54625,1.37625 -0.19125,2.94125 0.87,0.22375 0.46,4.21 0.6325,5.3175 0.37625,2.42625 0.565,5.2625 0.61125,7.7325 0.0188,0.98125 -0.14875,2.05125 0.16375,3.005 0,0.13875 -2.54125,0.295 -2.815,0.32 l 0,-0.0625 c 0.9025,-0.009 1.1525,-0.53125 0.75125,-1.56875 0.0625,-1.7825 0.17,-3.55875 0.09,-5.34125 -0.0612,-1.33625 0.415,-7.625 -1.16,-7.61125 -0.0137,-0.16375 0.05,-0.29125 0.19,-0.3825 -0.355,-0.2675 -1.32875,-0.98875 -1.725,-1.1525 0.1025,0.41375 -0.0675,0.47875 -0.51375,0.19125 0,1.85625 -1.01625,0.80625 -2.4925,1.34375 -0.19125,-0.78 1.02375,-0.0812 1.02375,-0.83 -0.5125,0.0238 -0.98125,0.1725 -1.4075,0.4475 -0.12375,-0.5925 0.4475,-0.505 0.4475,-1.08875 -0.0113,-0.005 -1.18875,0.19125 -1.53625,0.19125 0.745,-0.8575 0.165,-0.17625 -0.0613,-0.83 0.245,-0.0912 0.73625,-1.83125 0.89375,-0.51 0.38875,0 1.0875,-0.7375 1.0875,0.18875 0.69375,-0.33625 1.47,-0.075 1.47,-1.08625 0.54125,0.0625 1.07125,0.44625 1.53625,0.70625 -0.33875,0.0838 -0.65875,0.0412 -0.96125,-0.13125 0,0.82 1.155,-0.46125 1.2825,0.38375 1.10375,-0.49 -0.6175,-1.6625 -0.96125,-1.7275 0.0913,-0.705 -2.06375,-1.215 -2.87875,-1.215 0.19875,0.435 0.40875,0.47125 0.32,0.96 -0.95125,0.13125 -1,0.0562 -1.7275,-0.0625 0.13625,0.7525 -0.65,-0.09 -0.845,-0.07 -0.19875,0.0225 -1.25125,-1.0025 -1.07375,0.19625 -0.66,0.22625 -0.52625,0.1 -1.2775,0.19125 0.13875,-1.13375 -0.31875,-0.025 -0.31875,-0.895 0.35375,-0.0775 0.57375,0.0788 0.76625,-0.19 -1.20875,0.1075 -0.39,-1.4125 -0.065,-1.79125 -1.0375,0 -0.03,-1.15125 0.3825,-0.4475 0.20125,-0.65625 0.6625,-1.6425 1.41,-0.895 -0.27875,-0.1075 -0.385,-0.0425 -0.32125,0.19125 0.7675,-0.0587 0.9775,-0.16875 0.8975,-0.83125 0.47,-0.38125 0.19125,0.25375 0.445,0.25375 0.22125,-0.66375 -0.12625,-0.89375 -0.7025,-0.83125 0.2325,-0.3175 0.19,-0.71125 -0.31875,0 -0.60875,-1.3525 -1.54375,-0.6625 -3.00625,-1.15 0,0.4875 0.29125,0.40875 0.125,1.27875 -0.23875,-0.006 -0.3625,-0.1675 -0.575,-0.0638 0.12875,0.25125 -0.63375,3.19875 -1.02375,3.19875 0.035,0.81125 0.58875,-0.0475 -0.1275,1.02375 0.60875,-0.13625 0.38375,-0.0188 1.0875,0.0637 -0.0962,0.27375 -0.2875,0.445 -0.57625,0.51 0.6425,0.8925 -0.4725,2.56875 -0.70125,1.855 -0.33,0.415 -0.43625,0.88375 -0.3225,1.40625 -0.14125,-0.1975 -0.31125,-0.3675 -0.50875,-0.51 -0.015,0.55375 0.18125,0.58 0.0625,1.15 -3.07125,-1.6925 -1.14375,5.62875 -0.97625,7.40375 0.16375,1.7375 0.2475,3.48625 0.58125,5.20125 0.47,2.42125 1.73375,3.205 -1.3325,2.93875 -0.0188,-3.46875 -0.23375,-7.11875 -0.58125,-10.58125 -0.12625,-1.2675 -0.25875,-2.76375 -0.9525,-3.8725 -0.99,0.14 -1.3475,0.73875 -2.49625,0.575 0.22625,-0.1325 0.33375,-0.30375 0.32125,-0.5125 -3.0475,-0.8025 -1.9125,3.5375 -1.68,5.48875 0.35375,2.98875 1.04125,6.29125 1.04125,9.285 -0.57625,0.0437 -1.15125,0.0862 -1.7275,0.1275 -0.2275,-3.46875 -0.455,-6.935 -0.6825,-10.40125 -0.155,-2.35125 -1.31375,-4.65875 -1.49125,-6.86625 -0.16375,0.185 -0.35625,0.33375 -0.57625,0.4475 0.36375,0.115 0.5125,0.3275 0.4475,0.63875 -0.7125,0.3125 -1.12,0.1425 -0.96,-0.575 -0.23125,0 -0.8175,0.81375 -0.95875,1.0175 -0.8525,1.2275 -0.105,2.18625 0.80125,2.835 0.60125,0.43 1.645,0.43625 1.82125,1.0725 -0.31625,0.12125 -1.375,1.72875 -0.5125,1.535 -0.22,1.72 -1.945,1.73875 -1.835,3.85 0.0987,1.85375 0.5825,3.70125 0.62125,5.55125 -2.535,-0.4575 -1.745,-2.14375 -1.76625,-4.45125 -0.0113,-1.18625 -0.64875,-2.9825 -0.0263,-3.22375 -0.37375,-0.38625 -1.19,-0.37 -1.66375,-0.2575 -0.15625,-0.45125 0.2575,-0.1 0.2575,-0.38 -2.09625,-0.6225 -1.13375,1.02375 -1.09375,2.35375 0.0387,1.33375 -0.82,3.485 0.005,4.68125 l -1.40625,0 c 0.415,-1.75625 0.71125,-3.69625 0.45,-5.49625 -0.2325,-1.60875 -2.17625,-1.72625 -2.17625,-2.2425 -0.28375,-0.002 -0.3475,0.19125 -0.57625,0.19125 0.665,-1.18625 -1.83875,-0.07 -2.13125,1.31875 -0.3675,1.73375 -0.1675,5.97125 -2.2825,5.97125 0.12,-1.7525 0.905,-3.3975 1.21625,-5.11625 0.2625,-1.46 -0.065,-3.25125 -0.065,-4.73125 -0.54875,0.10625 -0.97,1.57125 -1.47125,0.70125 -0.74375,0 -1.065,1.67875 -1.1525,2.1925 -0.2275,1.33125 -0.19875,2.70625 -0.1325,4.05125 0.0575,1.17125 0.47625,3.03625 -1.465,2.0075 -1.37625,-1.46625 1.31,-5.97 0.5125,-7.865 0.26125,0.38125 -1.93625,-0.77875 -1.58,-0.70875 -0.71875,-0.1425 -0.47875,0.6125 -0.59375,0.98 -0.115,0.37 -1.3375,-0.0863 -1.4725,-0.08 0.1875,-0.78 -0.4775,-0.93375 -1.15,-1.27875 -1.17,0.9925 -0.90625,2.2875 -0.89875,3.83875 0.01,2.10125 2.3525,5.62 -0.76625,5.75375 0.6475,-0.865 0.04,-3.585 -0.0263,-4.57125 -0.0575,-0.8325 -0.12375,-1.6625 -0.19875,-2.4925 -0.0612,-0.69875 -0.82875,-0.39625 -1.10125,-1.0975 -0.7075,-1.82625 -0.83625,2.8225 -0.8175,3.15625 0.0962,1.58625 0.1,3.49875 0.675,5.005 l -1.41,0 c 0.69875,-3.155 0.26125,-5.56125 -1.8525,-7.675 -0.29375,0.65 0.21625,1.41875 -0.45,1.91875 -0.4875,-0.1425 -1.6125,0.0275 -1.91875,-0.255 0.3775,-0.14 0.74125,-0.31 1.08875,-0.51125 -0.1675,-0.42875 -0.57375,-0.47125 -1.215,-0.12875 0.10625,-0.21 0.255,-0.38125 0.4475,-0.51375 -0.5625,-0.5025 -0.27375,0.065 -0.76875,0.065 -0.12375,-0.245 -0.0813,-0.4575 0.1275,-0.64 -0.53875,-0.12625 -0.8925,1.12 -0.8925,-0.765 -0.895,-0.23375 -1.97,0.99375 -2.55875,-0.13 0.73625,-0.12 0.2525,-0.6225 -0.0875,-1.0175 -0.57,-0.665 -0.97125,0.06 -1.5125,0.06 -0.01,-0.2575 -0.6925,-3.11875 -1.02375,-1.66375 -0.81625,-0.3175 -0.2025,-0.69125 -0.32,-1.0225 -0.46125,-0.0362 -0.7425,0.10625 -1.08625,-0.2575 0.5025,-0.0488 1.2125,-0.68125 1.2125,-1.02375 -1.05125,0.025 -0.75,1.295 -1.2125,-0.70375 0.18875,-0.0487 0.38125,-0.07 0.575,-0.065 -0.24875,-0.58875 -0.955,-0.79875 -1.08875,-1.40625 0.5425,-0.34375 1.8725,-2.07125 0.385,-1.34375 -0.31375,-0.72875 0.615,-0.655 0.19125,-0.83125 0.89,-0.11625 -0.185,-0.04 0.64,-0.63875 -0.62375,-0.23875 -1.79125,0.33 -1.79125,-0.63875 0.0462,-0.0113 1.4025,-0.12125 1.3425,-0.0638 -0.10625,-0.13875 -0.575,-0.29875 -0.575,-0.385 1.00875,-0.42 2.5925,-0.44125 2.815,-1.725 1.2425,0.455 0.87,-1.345 0.31875,-1.345 1,-0.15375 0.895,-0.38375 0.895,0.64 0.3225,-0.006 0.48625,-0.4925 0.5125,0.0638 0.28125,-0.32125 0.34375,-0.6825 0.19,-1.08625 0.38625,0 0.37125,0.2475 0.77,0.3175 -0.1,0.11375 -0.2275,0.15875 -0.38375,0.13 0.37625,0.5025 0.44,0.77375 0.25625,1.15 0.19125,0.13 0.6575,-0.0187 0.83125,-0.19125 -0.67875,-0.335 2.81625,-1.96375 2.4925,0.12875 1.195,0.27875 0.57625,-0.3675 1.1525,-0.96 -0.29375,-0.22375 -0.82,-0.675 -1.0225,-0.575 -0.51,-1.915 0.685,-0.795 1.0875,-2.04875 -0.21125,-0.16875 -0.44625,-0.29625 -0.70375,-0.38375 0.10875,-0.2575 0.6975,-0.4775 0.895,-0.5125 -0.635,-0.7425 -1.24875,-1.7825 0.405,-2.07625 1.2775,-0.22625 1.005,-1.745 2.2375,-2.52625 0.45,-0.28625 2.9225,0.29375 2.15375,-0.63875 0.3275,-0.24125 0.19625,-0.53625 0.51375,-0.13125 1.06875,-0.53625 0.86375,-1.315 1.405,-2.1725 -1.04625,-0.145 0.68625,-0.86875 0.64125,-1.1525 0.3725,0.0263 0.20875,0.12875 0.63875,0.12875 -0.205,-0.2 -0.18375,-0.3075 0.0638,-0.32 0.4525,1.075 0.86875,0.635 1.6,0.44875 -0.29875,-0.19875 -0.34125,0.11375 -0.44875,-0.32125 0.765,-0.45375 1.795,-0.66875 1.4075,-1.85375 -0.30625,0.13375 -0.48375,0.395 -0.70125,0.0638 0.81,-0.4775 2.575,0.29625 2.62125,-0.4475 0.585,-0.0512 1.33,0.65 1.125,-0.0825 -0.12875,-0.45625 0.2225,-0.495 0.60125,-0.495 -0.30875,-0.11625 -0.395,-0.2875 -0.2575,-0.51125 0.39625,-0.095 0.25125,0.0838 0.5775,0.255 0.30875,-0.45875 -1.52375,-0.45625 -0.3175,-1.6 0.915,-0.865 0.87625,-1.245 0.44375,-2.11 0.1725,0.0375 0.34375,0.08 0.51375,0.12875 -0.17125,-0.4275 -0.7075,-1.70375 -1.1525,-1.79125 0.0937,-0.88875 0.585,-1.09875 0.5125,-2.045 0.43,0.325 0.62625,0.33625 0.64,0.83125 0.0825,-0.0937 0.10375,-0.20125 0.0625,-0.3225 0.15,0.0238 0.27875,0.0875 0.385,0.19375 0.18,-0.62625 0.60125,-1.57125 1.47,-0.96 0.92875,-1.39125 1.73375,-0.0575 2.5575,0.8325 -0.46625,0.2425 1.70875,1.51375 0.0663,1.34375 0.50625,0.405 1.755,0.24 1.75875,0.7275 0.002,0.29 -0.56375,0.6775 -0.9925,0.6775 0.14625,0.28125 0.38125,0.40875 0.705,0.38375 -0.0475,0.22375 -0.20875,0.47625 -0.385,0.64 0.0888,-0.575 -1.23375,-0.9425 -2.04625,-1.02375 0.07,0.28125 0,0.1225 0,0.38375 0.31125,0.015 0.92625,-0.37625 1.0875,-0.0625 -0.575,0.50625 -1.25,0.3825 -1.92,0.51125 0,0.55625 1.285,0.9875 1.855,1.02375 -0.35875,0.545 -0.44125,0.61 0.255,0.70625 -0.41125,-0.15375 0.29375,-0.0875 0.44875,0 0.475,-0.475 0.3775,0.009 0.96,-0.2575 0,-0.24625 -0.32125,-0.1275 -0.32125,-0.38375 0.4325,0.1 0.71625,0.5975 0.76875,-0.1275 0.19375,0.24625 0.4275,0.35375 0.7025,0.31875 -0.22125,-0.2075 -0.3275,-0.44125 -0.3175,-0.7025 1.8675,0.2075 1.4875,-1.11375 3.1975,-0.96125 -0.1375,-0.4025 0.0113,-0.615 0.4475,-0.6375 -0.20625,0.165 0.1075,-0.545 0.12625,-0.57625 -0.1925,-0.07 -0.3225,0.009 -0.51,-0.1925 0.34,0.10625 0.44625,-0.0213 0.31875,-0.3825 -0.4725,0.03 -0.94125,0.095 -1.405,0.19125 0.0412,-0.57875 -0.71625,-1.69875 -0.2575,-1.855 0.4525,-0.82125 2.2575,-1.7125 2.11,-2.5575 -0.135,-0.0488 -1.9825,1.30125 -1.9825,0.19125 0.31375,-0.19125 0.0375,-0.30875 0.51375,0.0625 -0.0475,-0.275 -0.16125,-0.9425 0.0637,-1.15 0.29125,0.91375 0.575,0.065 0.575,-0.25625 -0.0875,0.105 -0.0687,0.3175 -0.1925,0.3175 -0.555,-0.65875 0.3825,-0.56625 0.3825,-1.14875 -0.16375,0.05 -0.26875,0.15625 -0.31625,0.32 -0.15375,-0.29125 0.52625,-1.3025 0.82875,-1.4725 0.34125,1.425 0.7025,-0.88 0.7675,-1.1525 0.2325,1.2 2.1075,-0.05 2.11,0.5775 0.16,-0.21625 0.3725,-1.1075 0.19125,-1.27875 -0.3675,0.32625 -0.7025,1.085 -0.7025,0 0.225,-0.0625 0.30875,0.0437 0.255,0.31875 0.1125,-1.135 0.76375,-0.33 0.77,-0.95875" />
  </g>
</svg>
