<?xml version="1.0" encoding="UTF-8" standalone="no"?>
<svg
   xmlns:dc="http://purl.org/dc/elements/1.1/"
   xmlns:cc="http://creativecommons.org/ns#"
   xmlns:rdf="http://www.w3.org/1999/02/22-rdf-syntax-ns#"
   xmlns:svg="http://www.w3.org/2000/svg"
   xmlns="http://www.w3.org/2000/svg"
   xmlns:sodipodi="http://sodipodi.sourceforge.net/DTD/sodipodi-0.dtd"
   xmlns:inkscape="http://www.inkscape.org/namespaces/inkscape"
   width="228.99994"
   height="309.04736"
   id="svg4468"
   version="1.1"
   inkscape:version="0.48.2 r9819"
   sodipodi:docname="tree.svg">
  <defs
     id="defs4479" />
  <sodipodi:namedview
     pagecolor="#ffffff"
     bordercolor="#666666"
     borderopacity="1"
     objecttolerance="10"
     gridtolerance="10"
     guidetolerance="10"
     inkscape:pageopacity="0"
     inkscape:pageshadow="2"
     inkscape:window-width="1150"
     inkscape:window-height="1028"
     id="namedview4477"
     showgrid="false"
     fit-margin-top="0"
     fit-margin-left="0"
     fit-margin-right="0"
     fit-margin-bottom="0"
     inkscape:zoom="0.49166667"
     inkscape:cx="262"
     inkscape:cy="125.04736"
     inkscape:window-x="953"
     inkscape:window-y="232"
     inkscape:window-maximized="0"
     inkscape:current-layer="svg4468" />
  <metadata
     id="metadata7">image/svg+xml<rdf:RDF>
  <cc:Work
     rdf:about="">
    <dc:format>image/svg+xml</dc:format>
    <dc:type
       rdf:resource="http://purl.org/dc/dcmitype/StillImage" />
  </cc:Work>
</rdf:RDF>
</metadata>
  <g
     id="g4471"
     transform="translate(-58,-55.999998)">
    <title
       id="title4473">Layer 1</title>
    <g
       id="layer1">
      <path
         id="path3033"
         d="m 178.59381,56.016129 c -2.10998,0.10997 -4.22229,0.776207 -5.46881,1.9375 -1.75952,1.639236 -2.49298,1.809151 -3.65619,0.84375 C 168.30023,57.8275 168,57.898369 168,59.203629 c 0,0.983231 -0.8169,1.625 -2.09369,1.625 -1.46197,0 -1.93072,0.45916 -1.53131,1.5 0.43201,1.125732 -0.17822,1.499992 -2.40619,1.499992 -1.63281,0 -2.96881,0.450005 -2.96881,1 0,1.579681 -1.83746,1.183205 -4.875,-1.0625 -1.5401,-1.138672 -4.67902,-2.204216 -6.96869,-2.374992 -2.28979,-0.170769 -4.79498,-0.86837 -5.59381,-1.53125 -0.79871,-0.662903 -1.95551,-0.875153 -2.5625,-0.5 -0.7337,0.453476 -0.51569,1.15609 0.6875,2.09375 1.66473,1.297272 1.59991,1.375031 -0.9375,0.96875 -1.51721,-0.242935 -3.76721,-0.717773 -5,-1.03125 l -2.25,-0.5625 2.25,1.15625 c 3.3222,1.709961 2.90491,4.768997 -0.75,5.499992 -3.12231,0.624451 -3.90057,1.81971 -1.75,2.6875 0.6875,0.27742 0.23749,0.550308 -1,0.59375 -2.70239,0.09482 -2.85632,0.915398 -0.5,2.65625 2.45483,1.813622 0.55762,3.4142 -4.21869,3.59375 -2.5368,0.09536 -4.22113,-0.391975 -5.03131,-1.5 -1.3407,-1.833588 -3.5,-2.26535 -3.5,-0.6875 0,0.550003 -0.45001,1.000008 -1,1 -0.54999,0 -1,-0.693779 -1,-1.5625 0,-1.274002 -0.62848,-1.436577 -3.25,-0.8125 -1.78748,0.425552 -4.9375,0.682648 -7,0.5625 -3.49438,-0.203537 -4.29382,0.410263 -3.875,3.0625 0.0651,0.412498 -0.54999,0.750008 -1.375,0.75 -0.825012,0 -1.5,0.450012 -1.5,1 0,0.550003 -0.787476,1.013771 -1.75,1.03125 -1.611389,0.02928 -1.599182,0.163002 0.125,1.46875 1.672485,1.266594 1.218689,1.396782 -4.25,1.15625 C 88.757629,82.336784 86,82.56546 86,83.016121 c 0,0.450691 -0.916687,0.812508 -2.0625,0.8125 -1.222168,0 -1.931885,0.51667 -1.6875,1.25 0.229187,0.6875 0.8396,1.272835 1.343811,1.28125 0.504089,0.0084 1.464478,0.373329 2.156189,0.8125 0.741577,0.470802 1.921692,0.140793 2.843811,-0.78125 2.02179,-2.021812 3.050171,-2.018486 1.375,0 -1.092102,1.315849 -0.923889,1.669098 1.125,2.25 2.112122,0.598824 1.905396,0.737862 -1.593811,1.25 -3.893066,0.569794 -3.933167,0.632538 -1.5,1.718758 1.375,0.613815 2.049988,1.173065 1.5,1.25 -3.320068,0.464478 -4.623901,0.967636 -5.9375,2.28125 -0.809814,0.809799 -1.184204,1.75325 -0.843689,2.09375 0.340393,0.340469 0.05591,0.59375 -0.625,0.59375 -0.68103,0 -1.909729,0.690903 -2.75,1.53125 -1.193481,1.193501 -1.26709,1.856251 -0.343811,2.968751 0.650085,0.78326 0.888733,2.34233 0.531311,3.46875 -0.773621,2.43709 0.273376,2.67048 1.906189,0.4375 1.062988,-1.45375 1.293518,-1.45377 2.5,0 1.117493,1.34648 1.048706,1.59375 -0.375,1.59375 -0.924805,0 -1.381592,0.46428 -1.031189,1.03125 1.137085,1.83989 1.335876,8.44188 0.281189,9.09375 -0.684875,0.42329 -0.60022,1.41298 0.218811,3 l 1.218689,2.375 -2.375,-2.46875 -2.375,-2.5 -0.3125,2.25 c -0.326416,2.28181 -3.420288,4.67341 -4.5625,3.53125 -0.34729,-0.34732 -0.625,0.1495 -0.625,1.125 0,1.14853 -0.518066,1.58349 -1.468689,1.21875 -2.607483,-1.00058 -2.920227,1.62485 -0.4375,3.65625 L 74.5,132.10988 72.218811,131.39113 c -2.067017,-0.64379 -2.238892,-0.44606 -1.656311,1.875 0.466125,1.85686 0.222717,2.71106 -0.9375,3.15625 -0.883301,0.33896 -1.625,1.32275 -1.625,2.15625 0,1.24437 -0.279663,1.28869 -1.531189,0.25 -1.77771,-1.47537 -1.656677,-1.58962 -3.343811,3.34375 -1.30011,3.80182 -0.756104,6.31927 0.8125,3.78125 0.669678,-1.08353 0.97052,-1.09026 1.625,-0.0312 0.470032,0.76047 0.314819,1.45761 -0.375,1.6875 -1.564697,0.52157 -1.520813,3.92363 0.0625,4.5625 0.901306,0.36368 0.921204,0.53679 0.0625,0.59375 -0.654968,0.0434 -1.472595,-0.3875 -1.8125,-0.9375 -0.941711,-1.52364 -2.5,-1.19252 -2.5,0.53125 0,0.84225 0.674988,1.80842 1.5,2.125 2.321716,0.89093 1.77002,2.22824 -0.656189,1.59375 -1.536804,-0.40187 -1.945313,-0.21593 -1.406311,0.65625 0.416016,0.67311 0.781311,2.71527 0.781311,4.53125 0,2.0282 0.850769,4.24356 2.218689,5.71875 1.224731,1.32081 2.057922,2.92013 1.843811,3.5625 -0.214233,0.64235 0.52179,2.08438 1.656189,3.21875 1.134399,1.13437 2.0625,2.79516 2.0625,3.6875 0,1.28329 0.290222,1.39496 1.406311,0.46875 0.964478,-0.80052 1.619507,-0.84184 2.0625,-0.125 0.356384,0.5767 1.062195,1.03125 1.5625,1.03125 1.075378,0 0.0282,-3.20435 -1.343811,-4.125 -1.254395,-0.84178 0.05023,-2.875 1.843811,-2.875 0.807983,0 1.187866,0.62193 0.875,1.4375 -1.069519,2.78685 6.193481,7.8741 7.718689,5.40625 0.582581,-0.94264 1.246216,-0.79247 2.8125,0.625 1.137024,1.02891 2.404236,1.53325 2.8125,1.125 0.408325,-0.40827 -0.120667,-1.37625 -1.1875,-2.15625 -1.066772,-0.78003 -1.435181,-1.4375 -0.8125,-1.4375 0.622681,0 1.442993,0.49579 1.8125,1.09375 0.369507,0.5979 1.547302,0.87559 2.625,0.59375 1.806519,-0.47241 1.83728,-0.3492 0.5,1.65625 -1.200806,1.80075 -2.201721,2.1176 -5.9375,1.84375 -2.517578,-0.18457 -4.814819,0.147 -5.1875,0.75 -0.367371,0.59447 -2.007507,1.0625 -3.625,1.0625 -1.617493,0 -2.9375,0.47078 -2.9375,1.03125 0,0.57229 1.205627,0.79487 2.75,0.5 l 2.75,-0.53125 -2.625,1.0625 c -1.998474,0.79664 -2.533264,1.56367 -2.125,3.125 0.483276,1.8481 0.313904,1.94388 -1.625,0.90625 -2.868103,-1.53497 -4.828064,-0.33125 -2.4375,1.5 1.627136,1.24634 1.484314,1.32724 -1.4375,0.78125 -2.055664,-0.38417 -3.25,-0.22299 -3.25,0.46875 0,0.60147 -0.567383,0.86769 -1.281189,0.59375 -0.713928,-0.27396 -2.380615,0.64006 -3.6875,2.03125 l -2.375,2.53125 3.093689,0 c 1.706604,0 3.799988,-0.675 4.625,-1.5 1.977112,-1.97711 4.758728,-1.97711 4,0 -0.316589,0.825 -1.439514,1.5 -2.5,1.5 -1.587891,0 -1.747864,0.33368 -0.906189,1.90625 1.088318,2.03354 -0.157227,2.35718 -2.781311,0.71875 -2.504395,-1.56368 -2.631897,0.54007 -0.156189,2.53125 2.43811,1.96095 2.437805,1.98158 0.125,0.84375 -3.748413,-1.84412 -4.815796,0.3276 -1.468811,3 2.475281,1.97636 2.536499,2.16907 0.5625,1.5625 -1.67041,-0.51329 -2.25,-0.28864 -2.25,0.875 0,0.86206 -0.674988,1.5625 -1.5,1.5625 -1.006775,0 -1.5,1.00661 -1.5,3.0625 0,2.36001 0.401611,3.00307 1.75,2.78125 2.030396,-0.33403 4.25,0.838 4.25,2.25 0,0.60589 -0.663818,0.65237 -1.75,0.0937 -1.956787,-1.00643 -4.25,-0.5007 -4.25,0.9375 0,0.51776 1.237488,1.42926 2.75,2.03125 l 2.75,1.09375 -2.75,0.96875 c -3.225891,1.13098 -3.473816,2.32623 -0.843689,3.96875 1.585693,0.99032 1.700867,1.57525 0.781189,3.59375 -0.949768,2.08462 -0.741394,2.6821 1.375,4.28125 1.616089,1.22105 2.784119,1.49452 3.4375,0.84373 0.655029,-0.65231 0.497437,-1.2779 -0.468689,-1.87498 -0.804504,-0.49719 -1.146606,-1.22843 -0.75,-1.625 1.040222,-1.04022 1.937195,0.15088 2.25,3.00001 0.149414,1.36155 0.578125,2.98105 0.9375,3.56247 C 68.451416,241.38733 71,241.04166 71,239.32861 c 0,-1.49176 1.173096,-1.91095 4,-1.5 0.868713,0.12628 0.466614,-0.58178 -0.9375,-1.71875 -1.628967,-1.31907 -2.010071,-2.16713 -1.218689,-2.65623 0.639221,-0.39511 1.156189,-0.2941 1.156189,0.25 0,0.6391 1.133789,0.66046 3.218811,0.0625 C 80.525818,232.81767 84,233.35701 84,234.79738 c 0,0.44418 -1.384216,1.06436 -3.093689,1.40626 -2.226685,0.44532 -2.944519,1.04807 -2.531311,2.12497 0.335083,0.87329 0.0224,1.5 -0.75,1.5 -0.731323,0 -2.405823,2.02503 -3.718689,4.5 -1.438904,2.71222 -3.100525,4.5 -4.156311,4.5 -0.963379,0 -1.75,0.48004 -1.75,1.0625 0,0.58246 -0.450012,0.77747 -1,0.4375 -0.549988,-0.3399 -1,-0.0882 -1,0.53125 0,0.62116 0.808533,0.87122 1.781311,0.5625 1.112,-0.35296 2.215576,0.18149 3,1.4375 0.812988,1.30188 0.884888,1.96875 0.1875,1.96875 -0.587219,0 -0.825684,0.39868 -0.531311,0.875 0.294434,0.47635 -0.831787,0.72183 -2.468689,0.53128 -3.76709,-0.43866 -3.747131,0.51218 0.09369,4.53122 2.333496,2.44177 2.83252,3.5282 2,4.53125 -0.820923,0.98911 -0.704773,1.47516 0.5,1.93753 2.381104,0.91367 3.637512,0.72632 2.9375,-0.40628 -0.339905,-0.54999 0.05591,-1 0.875,-1 1.173401,0 1.322388,0.64612 0.656311,2.96875 -0.605225,2.11011 -0.47052,3.25711 0.5,4.0625 0.745605,0.6189 1.064026,1.89026 0.718689,2.8125 -0.546997,1.461 -0.407471,1.47699 1.0625,0.28128 1.453613,-1.18246 1.6875,-1.14782 1.6875,0.25 0,0.89234 0.510925,1.62497 1.125,1.62497 0.615234,0 0.875,-0.86209 0.593811,-1.9375 -0.280823,-1.07361 0.0271,-2.14545 0.656189,-2.375 0.839722,-0.30633 0.798889,-0.9671 -0.125,-2.53125 -1.12262,-1.90057 -1.020691,-2.15625 0.875,-2.15625 1.703735,0 2.013123,-0.44613 1.5625,-2.25 -0.502075,-2.00973 -0.335388,-1.94525 1.75,0.62503 2.514587,3.09925 4.5625,2.82553 4.5625,-0.62503 0,-2.54584 1.463013,-1.29993 2.5,2.125 0.621521,2.05267 0.427979,2.23847 -1.406189,1.65628 -2.66803,-0.84677 -2.699219,0.61383 -0.0625,3 1.736389,1.57147 1.837402,1.97397 0.5625,2.68747 -0.822998,0.46054 -1.248474,1.50205 -0.9375,2.31253 0.449402,1.17111 -0.421021,1.4758 -4.281311,1.49997 -3.887207,0.0243 -4.510376,0.25153 -3.0625,1.09378 1.676819,0.97537 1.603699,1.22345 -1,3.46872 -1.544983,1.3324 -3.335022,2.24005 -3.968689,2 -2,-0.75751 -2.370422,0.66516 -0.5625,2.125 1.590698,1.28461 1.532166,1.34912 -0.531311,0.78125 -2.893494,-0.79623 -2.893494,0.79492 0,2.9375 l 2.25,1.65625 -2.6875,-0.53125 c -3.161621,-0.64416 -4.402588,0.70819 -2.281189,2.46875 1.60791,1.33447 2.039795,4.96875 0.593689,4.96875 -0.485779,0 -1.151367,-0.97403 -1.468689,-2.18747 -0.317383,-1.2135 -0.896118,-1.88522 -1.281311,-1.5 -0.793091,0.79312 2.686096,7.68747 3.875,7.68747 0.424927,0 1.751282,-0.97006 2.968811,-2.18747 l 2.218689,-2.21878 0.593811,2.46875 c 0.65979,2.79535 3.651123,3.43997 3.1875,0.6875 -0.172485,-1.02392 0.24762,-1.65411 1,-1.49997 2.19989,0.45072 2.722412,2.09867 1.0625,3.31247 -0.968079,0.70789 -1.274475,1.63941 -0.781311,2.4375 0.625916,1.01276 1.127319,0.884 2.25,-0.59372 1.328186,-1.74817 1.403381,-1.64419 0.781311,1.34372 -0.395691,1.90006 -0.286499,3.25 0.281189,3.25 1.272095,0 2.368835,-4.38647 1.593811,-6.40625 -0.333435,-0.86868 -0.174988,-1.59375 0.375,-1.59375 0.549988,0 1.2771,0.67505 1.593689,1.5 0.791077,2.06152 2.623291,1.89099 2.6875,-0.24997 0.04401,-1.46914 0.307434,-1.38888 1.625,0.49997 1.506836,2.16007 4.082829,3.30545 2.812499,1.25 -0.33991,-0.54999 0.2818,-1 1.375,-1 2.32349,0 5.41882,-2.72754 4.59381,-4.0625 -0.31262,-0.50567 -0.0883,-0.9375 0.53119,-0.9375 0.67133,0 0.8783,0.80805 0.5,2 -0.80499,2.5365 -0.0365,2.5365 2.5,0 2.61389,-2.61389 2.53143,-3.95038 -0.25,-4.09375 -2.03857,-0.1051 -2.06207,-0.17956 -0.25,-0.625 1.10004,-0.27035 2.48773,-0.8844 3.09381,-1.375 0.65509,-0.5303 2.41052,-0.44421 4.3125,0.21878 1.75952,0.61338 3.52179,0.78882 3.90619,0.37497 0.3844,-0.41388 0.125,-0.9732 -0.5625,-1.21875 -2.7572,-0.98474 -1.12018,-2.38721 2,-1.71875 4.31268,0.92392 4.42981,1.12378 1.90631,3.3125 -1.18823,1.03052 -2.15631,2.3421 -2.15631,2.90625 0,1.52747 2.82123,2.30066 3.625,1 0.43652,-0.70633 1.03509,-0.26947 1.5625,1.15625 0.53394,1.44321 1.37488,2.07852 2.3125,1.71878 0.86029,-0.33017 1.90033,0.22315 2.5,1.34372 1.1308,2.11298 4,1.69086 4,-0.59372 0,-0.76617 0.42151,-1.40628 0.9375,-1.40628 0.51611,0 0.85358,1.20383 0.75,2.65628 -0.10718,1.50394 0.42053,2.84421 1.21881,3.12497 1.00263,0.35272 1.26007,-0.0895 0.875,-1.5625 -0.4024,-1.53863 -0.15381,-1.89947 0.96869,-1.46875 1.49322,0.573 1.38953,-0.42642 -0.5625,-5.75 -0.47797,-1.30371 -0.32288,-1.2919 1.1875,-0.0625 1.54163,1.2547 1.81042,1.17001 2.3125,-0.75 0.31128,-1.19043 1.11902,-2.1875 1.8125,-2.1875 0.69348,0 1.78461,-0.61963 2.4375,-1.40625 0.95001,-1.14465 0.76849,-1.6662 -0.90619,-2.5625 -1.151,-0.61593 -1.78998,-1.58587 -1.4375,-2.15625 0.43787,-0.70868 0.97571,-0.68048 1.71869,0.0625 1.52893,1.52896 2.6875,1.32636 2.6875,-0.4375 0,-0.82498 0.5,-1.5 1.09381,-1.5 0.68121,0 0.83771,-1.19879 0.4375,-3.25 l -0.625,-3.25 3.03119,3.5 c 1.67432,1.92502 3.5227,5.30005 4.09381,7.5 0.57098,2.19998 2.53149,7.60004 4.375,12 5.98187,14.27759 6.96252,34.17359 2.5,51.25 -0.69989,2.6781 -1.29852,5.46051 -1.625,7.46875 l 24.9375,0 c -0.2395,-1.1618 -0.47961,-2.33899 -0.78131,-3.71875 -2.08069,-9.5166 -1.05219,-51.63086 1.53131,-62.625 1.63538,-6.95935 1.91303,-7.41604 6.03119,-9.59375 3.2663,-1.7272 4.63422,-2.00445 5.65631,-1.15622 0.99542,0.82602 1.34369,0.82834 1.34369,0 0,-1.4396 3.677,-1.46399 4.5625,-0.0313 0.48383,0.78284 0.9671,0.78284 1.75,0 0.5979,-0.5979 1.54871,-1.09375 2.09381,-1.09375 0.54517,0 0.14917,0.6261 -0.875,1.37503 -1.02423,0.7489 -2.68158,1.13803 -3.6875,0.875 C 204.59833,288.75293 204,289.164 204,290.32861 c 0,0.94068 0.94739,1.95023 2.09381,2.25 1.42529,0.37268 1.7041,0.76886 0.875,1.28125 -0.66693,0.41223 -0.90289,1.28558 -0.5,1.9375 0.51489,0.83322 1.15588,0.58435 2.15619,-0.84372 1.7821,-2.54437 4.375,-1.69131 4.375,1.43747 0,1.28372 0.45001,2.59763 1,2.9375 0.54999,0.33991 1,1.30002 1,2.125 0,0.82501 -0.44098,1.22046 -1,0.875 -0.55902,-0.34543 -0.79291,-1.02597 -0.5,-1.5 0.29291,-0.47397 0.0902,-1.12329 -0.46869,-1.46872 -0.5589,-0.34546 -1.00842,0.16129 -1,1.15622 0.0393,4.6395 5.5993,5.91095 6.5625,1.5 1.17548,-5.38244 1.3551,-5.63779 2.78119,-3.6875 1.32593,1.81317 3.625,1.36136 3.625,-0.71875 0,-0.61169 -0.74292,-1.92834 -1.65619,-2.9375 -1.78619,-1.97369 -1.0257,-3.93188 0.8125,-2.09375 1.57837,1.57837 3.84369,0.41907 3.84369,-1.96875 0,-1.83954 0.20691,-1.80508 2.09381,0.59378 2.30841,2.93466 4.52362,2.67832 2.90619,-0.34378 -0.55151,-1.03042 -0.95947,-2.27008 -0.9375,-2.71872 0.0221,-0.44867 0.71069,0.42502 1.53131,1.9375 0.8205,1.51248 2.01367,2.74997 2.65619,2.74997 0.86761,0 0.86981,-0.28644 0.0313,-1.125 -0.8385,-0.8385 -0.42743,-2.16717 1.5625,-5.21872 5.25946,-8.06582 7.45136,-9.54635 8.46863,-5.65628 0.64404,2.46277 2.67316,2.64996 2.71881,0.25003 0.0279,-1.46975 0.35272,-1.35214 2,0.62497 1.0788,1.29477 1.71069,2.7573 1.40619,3.25003 -0.81555,1.31967 0.98096,1.08161 2.375,-0.3125 0.93335,-0.93338 1.1875,-0.82223 1.1875,0.5 0,0.93497 0.45001,1.68747 1,1.68747 0.55005,0 1,-0.89996 1,-2 0,-1.09997 0.50775,-2 1.125,-2 0.77563,0 0.73511,-0.46362 -0.125,-1.5 -0.99976,-1.20474 -0.96839,-1.5 0.0938,-1.5 1.0285,0 1.05829,-0.25415 0.125,-1.18747 -1.77557,-1.77566 -1.48871,-2.46393 1.03119,-2.37503 1.297,0.0458 2.14416,-0.46695 2,-1.18747 -0.14819,-0.74093 0.81848,-1.25003 2.34387,-1.25003 3.36768,0 2.98035,-3.42224 -0.40637,-3.59372 -1.26673,-0.0642 -2.84906,-0.65658 -3.5,-1.31253 -0.91406,-0.92126 -0.77356,-1.04455 0.65631,-0.5 1.112,0.42352 2.1806,0.20697 2.65619,-0.5625 0.59057,-0.95544 1.07104,-0.74817 1.90637,0.8125 0.65772,1.22907 2.56921,2.36438 4.625,2.75 1.92432,0.36102 3.72974,1.04361 4.03113,1.53128 0.86816,1.4046 2.4375,1.01859 2.4375,-0.59375 0,-0.80746 -1.23743,-2.11694 -2.75,-2.93753 -1.86243,-1.01044 -2.20777,-1.50412 -1.0625,-1.53125 0.93005,-0.022 1.98596,0.42096 2.34387,1 0.35791,0.57904 1.12952,0.88382 1.71863,0.6875 1.54101,-0.51364 1.84619,-4.02783 0.4375,-5.03125 -0.87488,-0.62317 -0.86414,-0.99982 -0.0311,-1.34372 1.4596,-0.60281 -2.17639,-8.36059 -3.9375,-8.40628 -0.72156,-0.0187 -0.49817,-0.56238 0.53113,-1.34375 0.96252,-0.73065 1.75,-2.26187 1.75,-3.40625 0,-1.14441 0.38391,-2.30957 0.84387,-2.59375 1.30127,-0.8042 0.68457,-4.68066 -0.90637,-5.6875 -2.28736,-1.44754 -3.30066,-1.06793 -1.84363,0.6875 1.1637,1.40228 1.08215,1.57874 -0.625,1.25 -1.08362,-0.20868 -2.74939,-2.0661 -3.71887,-4.125 -1.65796,-3.52109 -3.75,-5.02278 -3.75,-2.6875 0,1.74906 -2.05872,-0.0786 -3.0625,-2.71873 -0.51502,-1.35468 -1.39099,-2.16959 -1.96869,-1.8125 -0.71948,0.44467 -0.67706,1.096 0.125,2.0625 2.28217,2.74986 -0.38391,1.36639 -5.375,-2.8125 -3.17529,-2.65854 -5.21021,-3.77591 -5.46881,-3 -0.22669,0.68002 -1.25836,1.21875 -2.3125,1.21875 -1.0542,0 -1.9375,0.45001 -1.9375,1 0,1.92984 -3.52808,0.97271 -6.46869,-1.75 -1.63342,-1.51252 -3.43915,-2.80094 -3.99994,-2.875 -0.56091,-0.0741 -1.59381,-0.18656 -2.28131,-0.25 -2.59058,-0.23908 -1.09802,-1.7038 1.96881,-1.9375 1.75867,-0.13401 3.39038,-0.42166 3.62494,-0.65625 0.2345,-0.23459 1.23663,0.56714 2.25,1.78125 1.8988,2.27487 2.61713,1.3251 0.96869,-1.28125 -0.59015,-0.9332 -0.53436,-1.91788 0.15631,-2.75 1.5733,-1.89572 0.0389,-2.89818 -2.25,-1.46875 -2.60632,1.62771 -2.46973,0.85327 0.40619,-2.25 2.8341,-3.05811 3.625,-3.20711 3.625,-0.625 0,1.06753 0.45001,2.22258 1,2.5625 0.56946,0.35189 1,-0.5093 1,-2 0,-1.50296 0.42181,-2.35733 1,-2 0.55395,0.3423 1.27661,-0.0486 1.59381,-0.875 0.74451,-1.94005 -1.862,-7.2013 -3.40631,-6.875 -0.65076,0.13749 -1.1875,-0.45009 -1.1875,-1.3125 0,-1.2979 0.51703,-1.20559 3,0.5625 1.65002,1.17489 3,2.57995 3,3.125 0,0.54499 0.49921,0.71118 1.09381,0.34375 0.60693,-0.3751 0.81189,-1.82991 0.46869,-3.3125 -0.45825,-1.97927 -0.35449,-2.28044 0.40631,-1.15625 0.55829,0.82499 1.02924,2.40001 1.0625,3.5 0.0502,1.66072 0.2807,1.56472 1.28119,-0.65625 1.02435,-2.27367 1.37274,-2.46106 2.46881,-1.25 1.06293,1.17431 1.01892,1.40625 -0.25,1.40625 -0.84656,0 -1.53131,0.44999 -1.53131,1 0,0.54998 0.4707,1 1.03131,1 0.60291,0 0.73712,1.0888 0.34369,2.65625 -0.4679,1.86438 -0.3064,2.43586 0.5,1.9375 0.69714,-0.43087 1.1369,-0.007 1.15631,1.09375 0.0297,1.68776 0.13013,1.68599 1.5,-0.125 1.45343,-1.92153 1.46844,-1.92154 1.5,0 0.0315,1.92151 0.0466,1.92147 1.50006,0 0.8075,-1.06763 1.46863,-2.76915 1.46863,-3.78125 0,-1.01215 0.67505,-2.08966 1.5,-2.40625 0.82507,-0.31659 1.5,-1.18865 1.5,-1.9375 0,-0.7995 0.61938,-1.11922 1.5,-0.78125 1.76147,0.67595 1.89038,-0.47921 0.46887,-4.21875 -0.90625,-2.38346 -0.84546,-2.55399 0.5,-1.4375 0.84241,0.69922 1.53113,2.09234 1.53113,3.125 0,1.03265 0.45007,1.875 1,1.875 1.29846,0 1.29846,-2.69757 0,-3.5 -1.54883,-0.95725 -1.15942,-2.49976 0.46887,-1.875 1.12451,0.43155 1.36841,-0.2643 1.1875,-3.09375 -0.12829,-2.00479 -0.65649,-3.93174 -1.1875,-4.3125 -0.53113,-0.38076 -1.57849,-1.49366 -2.34387,-2.46875 -1.21985,-1.55426 -1.18909,-1.70847 0.25,-1.15625 1.06946,0.41037 1.625,0.12724 1.625,-0.84375 0,-0.81971 -0.93835,-1.76039 -2.09363,-2.0625 -1.15674,-0.30249 -1.80078,-1.00606 -1.4375,-1.59375 0.41235,-0.66729 -0.58752,-1.11501 -2.65637,-1.1875 -1.81982,-0.0638 -2.52502,-0.34221 -1.5625,-0.59375 0.96252,-0.25153 1.75,-1.1204 1.75,-1.9375 0,-0.81714 0.40588,-1.21547 0.90637,-0.90625 0.50025,0.30923 1.71546,0.24797 2.6875,-0.125 1.64551,-0.63147 1.63794,-0.73461 -0.15637,-1.4375 -3.05823,-1.19808 -4.4375,-1.02199 -4.4375,0.59375 0,0.82499 -0.33752,1.47137 -0.75,1.40625 -0.41248,-0.0651 -0.97498,-0.0485 -1.25,0.0625 -2.01666,0.81373 -5,0.50383 -5,-0.53125 0,-0.68726 -0.33746,-1.45684 -0.75,-1.6875 -0.41248,-0.2307 -0.075,-0.21601 0.75,0.0312 5.37378,1.61053 5.33105,1.64199 4.84387,-0.90625 -0.25842,-1.35179 0.003,-2.90084 0.59363,-3.4375 1.58057,-1.43644 4.56128,-0.5822 3.90637,1.125 -0.30347,0.79052 -0.0464,1.4375 0.5625,1.4375 0.60889,0 1.10816,-0.5625 1.125,-1.25 0.0168,-0.69373 0.49671,-0.47121 1.0625,0.5 1.16773,2.005 3.36511,2.39735 2.625,0.46875 -0.78882,-2.05556 4.12891,-1.3088 5.78113,0.875 1.40466,1.85646 1.43799,1.83889 1.46887,0.0312 0.0263,-1.55024 0.28931,-1.65566 1.53113,-0.625 1.23852,1.02787 1.5,0.9498 1.5,-0.53125 0,-0.98655 -0.71497,-2.59139 -1.59363,-3.5625 -1.73413,-1.9161 -1.14746,-3.90625 1.15613,-3.90625 0.7926,0 1.4375,-0.45 1.4375,-1 0,-0.55001 -0.33752,-0.99894 -0.75,-1 -0.41248,-0.001 -0.8429,-1.43622 -0.96863,-3.21875 -0.12585,-1.78254 -0.68835,-3.40657 -1.25,-3.59375 -1.92383,-0.64128 -1.03381,-1.99244 0.96863,-1.46875 1.1029,0.2884 2,0.0427 2,-0.5625 0,-0.60369 -1.07886,-1.38559 -2.40613,-1.71875 -1.43774,-0.36084 -2.67041,-1.56232 -3.03137,-3 -0.33313,-1.32735 -1.00891,-2.4375 -1.53113,-2.4375 -0.52222,0 -0.67859,-0.68985 -0.34387,-1.5625 0.50915,-1.3266 -0.11047,-1.54628 -3.78113,-1.28125 -3.35266,0.24206 -4.40637,-0.0258 -4.40637,-1.15625 0,-0.81423 0.60278,-1.36367 1.3125,-1.21875 0.70984,0.14492 2.16418,-0.23137 3.25,-0.8125 1.53821,-0.82323 2.1012,-0.70229 2.5625,0.5 0.98303,2.56147 3.17346,1.72552 3.875,-1.46875 0.45325,-2.06325 1.27295,-3 2.59387,-3 2.04334,0 2.5708,-1.47123 0.90613,-2.5 -1.5343,-0.94828 -1.18372,-2.5 0.5625,-2.5 0.85754,0 1.27356,-0.42508 0.9375,-0.96875 -0.35022,-0.56687 0.0789,-0.74778 0.96887,-0.40625 0.85352,0.32753 1.53113,0.13427 1.53113,-0.4375 0,-0.5718 -0.90002,-1.33838 -2,-1.6875 -1.09998,-0.34914 -2,-1.26264 -2,-2.03125 0,-0.76859 -0.84229,-1.85356 -1.875,-2.40625 -2.32178,-1.2426 -3.29602,-5.65503 -1.5625,-7.09375 0.98962,-0.82129 1.1654,-0.58864 0.75,1 -0.38928,1.4886 -0.0598,2.03125 1.1875,2.03125 1.08667,0 1.50354,-0.53249 1.15637,-1.4375 -0.3031,-0.78946 -0.13708,-1.577 0.34363,-1.75 1.14868,-0.4135 -1.43921,-3.8676 -3.15613,-4.21875 -0.73376,-0.15006 -2.0188,-0.53162 -2.84387,-0.84375 -0.82495,-0.31215 -2.73743,-0.85607 -4.25,-1.1875 -1.51245,-0.33142 -2.76636,-1.13549 -2.78113,-1.8125 -0.0149,-0.67704 -1.81482,-2.33942 -4,-3.6875 -2.1853,-1.34809 -3.96887,-2.83133 -3.96887,-3.28125 0,-1.11093 5.31738,0.25879 6.1875,1.59375 1.25146,1.91954 2.26099,-0.4057 1.03137,-2.375 -0.97449,-1.56031 -0.93884,-1.80721 0.1875,-1.375 2.27027,0.87117 2.82288,-1.41751 0.625,-2.59375 -1.3656,-0.73088 -2.03137,-0.75962 -2.03137,-0.0625 0,1.90249 -1.48377,1.06279 -2.6875,-1.53125 -0.92053,-1.983524 -0.92053,-2.34798 0,-1.593753 1.10303,0.903778 4.12671,1.551373 5.96887,1.28125 1.85938,-0.272705 -1.79529,-4.451233 -6.34387,-7.25 -5.07776,-3.124405 -6.26715,-4.427094 -3.1875,-3.468758 0.96252,0.299515 2.42505,0.131203 3.25,-0.40625 1.33337,-0.868599 1.33337,-1.093468 0,-1.96875 -0.82495,-0.54158 -2.02014,-0.991577 -2.65619,-1 -0.66199,-0.0088 -0.92438,-0.886299 -0.625,-2.03125 0.5835,-2.2313 -0.66687,-2.614319 -2.5,-0.78125 -1.2727,1.272751 -1.63141,0.268501 -1.25,-3.46875 0.10309,-1.0103 -0.8266,-2.154205 -2.15631,-2.6875 -1.27289,-0.51049 -1.9173,-0.965172 -1.4375,-1 1.95904,-0.142319 -1.79565,-3.062492 -3.9375,-3.0625 -1.27515,0 -2.59625,-0.44799 -2.9375,-1 -0.34106,-0.552017 -1.72119,-0.711639 -3.0625,-0.375 -1.58649,0.398201 -2.4375,0.168488 -2.4375,-0.625 0,-0.819939 -1.06519,-1.049812 -3.25,-0.6875 -1.78742,0.296394 -4.1499,0.159058 -5.24994,-0.3125 -1.09998,-0.471519 -1.4375,-0.867607 -0.75,-0.90625 0.6875,-0.03866 1.25,-0.57254 1.25,-1.15625 0,-0.974808 -5.16717,-0.71067 -11.59369,0.59375 -1.14862,0.233131 -2.94861,-0.216728 -4,-1.03125 -1.48852,-1.153076 -1.52173,-1.35788 -0.21881,-0.90625 1.0719,0.371529 2.06903,-0.169228 2.78131,-1.5 0.89227,-1.667282 0.80969,-2.093742 -0.375,-2.093742 -0.81189,0 -1.74493,0.46669 -2.09381,1.031242 -0.34888,0.56459 -1.1665,0.953491 -1.8125,0.84375 -1.51459,-0.257278 -6.6875,2.229958 -6.6875,3.21875 0,0.415878 0.5625,0.982224 1.25,1.28125 0.6875,0.299011 0.0114,0.312523 -1.5,0 -2.19141,-0.45314 -3.341,0.05282 -5.65619,2.53125 -3.27972,3.510971 -4.09381,3.811699 -4.09381,1.5 0,-1.251396 -0.60028,-1.46917 -2.71869,-0.9375 -2.69299,0.67588 -2.68408,0.658569 -0.84381,-1.375 1.82489,-2.016418 1.81049,-2.053528 -0.53119,-2.9375 -1.31341,-0.495766 -2.74377,-0.711647 -3.15631,-0.46875 -0.41248,0.242882 -0.75,-0.09066 -0.75,-0.75 0,-0.659332 -0.78748,-1.800591 -1.75,-2.53125 -1.65308,-1.254906 -1.6438,-1.34494 0.125,-1.374992 1.45203,-0.02466 1.61371,-0.334343 0.75,-1.375 -1.32111,-1.591843 -0.47772,-2.65625 2.0625,-2.65625 2.0415,0 2.48889,-1.597458 0.625,-2.21875 -0.65729,-0.219124 -2.7948,0.16703 -4.75,0.84375 -2.8479,0.985695 -3.86078,0.962532 -5.0625,-0.0625 -1.2113,-1.03318 -3.29626,-1.484978 -5.40619,-1.375 z M 86.343811,100.23488 c 0.429504,-0.0515 0.897095,0.1745 1.156189,0.59375 0.34552,0.55897 -0.08002,1 -0.9375,1 -1.75647,0 -2.012024,-0.58029 -0.625,-1.4375 0.127991,-0.0791 0.263123,-0.1391 0.406311,-0.15625 z m -7.9375,3.9375 c -0.119629,0.0231 -0.268799,0.0713 -0.406311,0.15625 -0.549988,0.33992 -1,1.075 -1,1.625 0,0.54999 0.450012,0.71492 1,0.375 0.549988,-0.33992 1,-1.04375 1,-1.59375 0,-0.41251 -0.235168,-0.63179 -0.593689,-0.5625 z m 199.124999,33 c 0.81628,0 1.46863,0.6104 1.46863,1.34375 0,1.68353 -0.44653,1.68352 -1.84363,0 -0.83765,-1.00926 -0.74841,-1.34372 0.375,-1.34375 z m -3.875,4.0625 c 1.1698,-0.14116 3.65137,0.63388 4.8125,1.71875 0.59998,0.56058 0.59998,0.836 0,0.75 -3.84717,-0.55148 -5.46887,-1.13921 -5.46887,-2 0,-0.2729 0.26636,-0.42171 0.65637,-0.46875 z m -9.46887,5.8125 c 0.19958,-0.0726 0.55163,0.11403 1,0.5625 0.65088,0.65082 0.94055,1.43457 0.65637,1.71875 -0.66748,0.66739 -1.84387,-0.509 -1.84387,-1.84375 0,-0.23499 0.0679,-0.39394 0.1875,-0.4375 z M 201,150.82863 c 0.54999,0 1,0.19496 1,0.4375 0,0.24254 -0.45001,0.72258 -1,1.0625 -0.54999,0.3399 -1,0.14496 -1,-0.4375 0,-0.58247 0.45001,-1.0625 1,-1.0625 z m -29.90619,2.5625 c 0.61572,-0.0219 1.39142,0.31076 1.9375,0.96875 0.67957,0.81894 0.96613,1.46875 0.65619,1.46875 -0.30988,0 -0.84198,-0.44104 -1.1875,-1 -0.3454,-0.55898 -1.05048,-0.75395 -1.5625,-0.4375 -0.51202,0.31642 -0.9375,0.33749 -0.9375,0.0625 0,-0.67738 0.47803,-1.04061 1.09381,-1.0625 z m 105,8.5625 c 0.34741,-0.0143 0.73267,0.0743 1.09363,0.21875 0.79773,0.31921 0.57129,0.54575 -0.59363,0.59375 -1.0542,0.0434 -1.6449,-0.19893 -1.3125,-0.53125 0.16602,-0.16615 0.46509,-0.26695 0.8125,-0.28125 z m -0.25,3.9375 c 0.29419,-0.082 0.98865,0.18335 2.03113,0.84375 0.75452,0.47797 1.20886,1.37352 1,2 -0.22962,0.68869 -1.07752,0.34836 -2.125,-0.875 -1.0105,-1.18015 -1.28455,-1.86337 -0.90613,-1.96875 z m -215.187499,1.09375 c -0.121887,0.0317 -0.223022,0.0979 -0.3125,0.1875 -0.293518,0.29349 -0.23761,1.00716 0.125,1.59375 0.814697,1.31821 2.531189,1.40297 2.531189,0.125 0,-1.03238 -1.490601,-2.1284 -2.343689,-1.90625 z m 30.531189,1.84375 c 0.521912,0 0.293823,0.675 -0.531189,1.5 -1.949524,1.94942 -3.274231,1.94942 -1.656311,0 0.684692,-0.82501 1.665588,-1.5 2.1875,-1.5 z m -9,1 c 0.787231,0 2.189026,0.5625 3.093811,1.25 1.31427,0.99873 1.402222,1.55153 0.4375,2.75 -1.642517,2.04036 -3.41333,2.24206 -4.093811,0.46875 -0.309875,-0.80762 -0.06879,-1.46875 0.531311,-1.46875 0.719666,0 0.664917,-0.51053 -0.156311,-1.5 -1.007874,-1.21452 -0.971375,-1.5 0.1875,-1.5 z m -12.781189,1.34375 c 0.272095,-0.0721 0.652466,0.38234 0.9375,1.125 0.676086,1.7621 0.111023,2.06421 -0.875,0.46875 -0.36261,-0.58659 -0.449707,-1.26911 -0.1875,-1.53125 0.03271,-0.0328 0.08612,-0.0522 0.125,-0.0625 z m 10.1875,0.71875 c 0.248169,0 0.406189,0.47716 0.406189,1.4375 0,0.825 -0.435974,1.5 -0.968689,1.5 -0.532776,0 -0.691589,-0.675 -0.375,-1.5 0.368469,-0.96034 0.689209,-1.4375 0.9375,-1.4375 z m 192.874999,0 c 0.276,0 0.63513,0.2968 1.03113,0.9375 0.33996,0.54999 0.14502,1 -0.4375,1 -0.5824,0 -1.0625,-0.45 -1.0625,-1 0,-0.6407 0.19275,-0.9375 0.46887,-0.9375 z m 5.71863,2.03125 c 0.93005,-0.0387 1.97265,0.35625 2.3125,0.90625 0.71069,1.14987 0.6759,1.14989 -2,0 -1.63037,-0.70062 -1.69092,-0.84899 -0.3125,-0.90625 z m -132.71863,1.96875 c 0.276,0 0.63519,0.2968 1.03119,0.9375 0.3399,0.54999 0.14502,1 -0.4375,1 -0.58252,0 -1.0625,-0.45 -1.0625,-1 0,-0.6407 0.19269,-0.9375 0.46881,-0.9375 z m 13.15619,2.125 c 0.70752,-0.0971 0.35791,2.78111 -0.78119,5.28125 -0.79022,1.73422 -1.72943,2.39485 -2.875,2.03125 -2.31348,-0.73428 -4.96881,0.42174 -4.96881,2.15625 0,1.15083 -0.3952,1.207 -2.125,0.28125 -1.74481,-0.93382 -2.32849,-0.8429 -3.0625,0.46875 -0.4967,0.8875 -1.51117,1.59375 -2.25,1.59375 -1.7821,0 -2.90021,-3.03737 -1.59369,-4.34375 0.71027,-0.71037 1.03119,-0.51305 1.03119,0.65625 0,2.77089 2.02808,1.92361 3.15631,-1.3125 0.57489,-1.64935 1.48932,-2.70989 2.03119,-2.375 0.54193,0.33488 2.97668,0.72206 5.40631,0.875 3.19037,0.20082 4.44092,-0.0912 4.53119,-1.09375 0.24689,-2.74185 0.3858,-3.2296 1.125,-3.96875 0.1452,-0.14523 0.27393,-0.23613 0.375,-0.25 z m 115.68744,0.0625 c -0.26636,-0.0173 -0.3125,0.33763 -0.3125,1.0625 0,1.84585 3.55566,4.09949 5.03137,3.1875 0.53857,-0.3329 0.96863,0.11008 0.96863,1 0,0.88991 0.45007,1.33992 1,1 0.55005,-0.33992 1,-1.5204 1,-2.625 0,-1.57646 -0.4364,-1.8599 -2.0625,-1.34375 -1.32337,0.42 -2.76831,0.0209 -4,-1.09375 -0.86292,-0.78096 -1.35852,-1.1702 -1.625,-1.1875 z m -119.96863,0.15625 c 0.4295,-0.0515 0.8971,0.17451 1.15619,0.59375 0.34552,0.55896 -0.08,1 -0.9375,1 -1.75647,0 -2.01209,-0.58029 -0.625,-1.4375 0.12799,-0.0791 0.26312,-0.1391 0.40631,-0.15625 z m -82.78131,0.90625 c -0.77179,-3.2e-4 -1.357178,1.04341 -0.906189,2.21875 0.309814,0.80737 0.9776,1.46875 1.468689,1.46875 1.026123,0 1.203003,-2.32823 0.25,-3.28125 -0.266724,-0.26669 -0.555176,-0.40616 -0.8125,-0.40625 z m 58.625,1.4375 c 0.16498,-0.14883 0.5116,0.50197 0.875,1.71875 0.4845,1.62236 0.72009,3.09238 0.53131,3.28125 -0.53308,0.53309 -1.59601,-2.70021 -1.5,-4.5625 0.0118,-0.22939 0.0387,-0.38789 0.0937,-0.4375 z m 8.28131,1.3125 c 0.276,0 0.63519,0.2968 1.03119,0.9375 0.3399,0.54999 0.14502,1 -0.4375,1 -0.58252,0 -1.0625,-0.45 -1.0625,-1 0,-0.6407 0.19269,-0.9375 0.46881,-0.9375 z m 26.09369,3.28125 c 1.93842,0 1.8595,1.30098 -0.125,2.0625 -2.22858,0.85521 -2.42151,0.78679 -1.84369,-0.71875 0.28137,-0.73335 1.16742,-1.34372 1.96869,-1.34375 z M 67,188.82863 c -0.549988,0 -1,0.45 -1,1 0,0.54999 0.450012,1 1,1 0.549988,0 1,-0.45 1,-1 0,-0.55 -0.450012,-1 -1,-1 z m 199.09381,16.125 c 0.34741,-0.0143 0.73267,0.0743 1.09363,0.21875 0.79773,0.31921 0.57129,0.54575 -0.59363,0.59375 -1.0542,0.0434 -1.6449,-0.19893 -1.3125,-0.53125 0.16602,-0.16615 0.46509,-0.26695 0.8125,-0.28125 z m -3.625,1.34375 c 0.0602,0.0225 0.11804,0.10937 0.1875,0.28125 0.27734,0.6875 0.27722,1.8125 0,2.5 -0.27747,0.6875 -0.50012,0.125 -0.50006,-1.25 0,-1.03125 0.13159,-1.59863 0.31256,-1.53125 z m -2.50006,4.5625 c 0.52502,0 1.13129,0.32179 1.53119,0.96875 0.3399,0.54999 -0.08,1 -0.9375,1 -0.85736,0 -1.5625,-0.45 -1.5625,-1 0,-0.64697 0.44372,-0.96875 0.96881,-0.96875 z m -20.21881,0.0625 c 1.05585,0.0476 1.25781,0.28821 0.5,0.59375 -0.69098,0.27855 -0.99835,0.9032 -0.6875,1.40625 0.65661,1.06236 0.0986,1.22368 -0.875,0.25 -1.22193,-1.22194 -0.70813,-2.32991 1.0625,-2.25 z m 26.25,0.90625 c -0.54993,0 -1,0.70505 -1,1.5625 0,0.85745 0.45007,1.27742 1,0.9375 1.29394,-0.79968 1.29394,-2.5 0,-2.5 z m -53.93744,10.46875 c 0.63361,-0.0832 0.23639,0.80063 -1.21869,2.6875 -3.72162,4.82596 -6.86969,4.79315 -6.8125,-0.0625 0.0264,-2.23725 0.17981,-2.35928 1.0625,-0.84375 1.22919,2.11035 3.77637,2.3107 4.53119,0.34375 0.30029,-0.7825 1.2301,-1.69983 2.09381,-2.03125 0.13269,-0.0509 0.25317,-0.0819 0.34369,-0.0937 z M 195,223.82863 c 0.54999,0 1,0.19498 1,0.4375 0,0.24252 -0.45001,0.72259 -1,1.0625 -0.54999,0.3399 -1,0.14496 -1,-0.4375 0,-0.58246 0.45001,-1.0625 1,-1.0625 z m 3.46881,0.5 c 0.0576,-0.005 0.11902,0.0807 0.1875,0.25 0.27399,0.67703 0.28467,2.02704 0.0312,3 -0.25348,0.97296 -0.47968,0.39999 -0.5,-1.25 -0.0153,-1.23752 0.10828,-1.98438 0.28131,-2 z m -126.28131,0.5 c 0.458313,0 0.8125,0.67502 0.8125,1.5 0,0.82498 -0.354187,1.5 -0.8125,1.5 -0.458313,0 -0.843689,-0.67499 -0.843689,-1.5 0,-0.82501 0.385376,-1.5 0.843689,-1.5 z m 111.21881,1.34375 c 0.35852,-0.0603 0.59369,0.15689 0.59369,0.59375 0,0.58246 -0.45001,1.0625 -1,1.0625 -1.28137,0 -1.28137,-0.70807 0,-1.5 0.13751,-0.085 0.28668,-0.13617 0.40631,-0.15625 z m -92.90631,1 c 0.776611,0 1.189514,0.3854 0.906311,0.84375 -0.651611,1.0542 -1.129822,1.0542 -1.781311,0 -0.283264,-0.45835 0.09839,-0.84372 0.875,-0.84375 z m 100.75,0.53125 c 2.17621,-0.0171 2.75,0.32587 2.75,1.21875 0,0.67914 -1.11249,0.8208 -3,0.40625 -1.71759,-0.37726 -3,-0.24057 -3,0.3125 0,0.53125 -1.34998,1.16406 -3,1.40625 -1.64996,0.24216 -3,0.0916 -3,-0.34375 0,-1.23145 3.19348,-2.64768 6.5,-2.875 1.11871,-0.0769 2.0246,-0.11929 2.75,-0.125 z m -115.4375,2.15625 c 1.287598,-0.009 2.032104,0.41113 1.6875,0.96875 -0.743164,1.20248 -0.639282,1.20251 -2.5,0 -1.206787,-0.77988 -1.045105,-0.95645 0.8125,-0.96875 z m 4.4375,0 c 0.962524,-0.008 1.75,0.41876 1.75,0.96875 0,1.2196 -0.112793,1.2196 -2,0 -1.281921,-0.82843 -1.245605,-0.95566 0.25,-0.96875 z m 6.343811,0.625 c 0.453491,-0.0372 1.05072,0.39847 1.906189,1.34375 1.385925,1.5314 1.469482,2.0116 0.406311,2 -2.305481,-0.0251 -3.856812,-1.44559 -3.031311,-2.78125 0.216125,-0.34958 0.446594,-0.54019 0.718811,-0.5625 z M 162,231.89113 c 0.82501,-0.0111 2.15973,0.39459 2.96881,0.90625 2.44452,1.54599 0.71619,1.98593 -1.96881,0.5 -1.44849,-0.80164 -1.86957,-1.39462 -1,-1.40625 z m 14.125,0.40625 c 1.5827,0.021 2.875,0.36758 2.875,0.78125 0,0.41369 -0.62701,0.75 -1.40619,0.75 -0.77911,0 -1.56482,0.4758 -1.75,1.03125 -0.18512,0.55542 -0.8504,0.17767 -1.46881,-0.8125 -0.98621,-1.57919 -0.77411,-1.78357 1.75,-1.75 z M 153,232.82863 c 0.54999,0 1,0.19498 1,0.4375 0,0.24252 -0.45001,0.72259 -1,1.0625 -0.54999,0.3399 -1,0.14496 -1,-0.4375 0,-0.58246 0.45001,-1.0625 1,-1.0625 z m 19.1875,1 c 0.6416,0 0.86188,0.29434 0.5,0.65625 -0.36188,0.36191 -0.17499,1.26187 0.4375,2.00001 0.70032,0.84372 0.76349,1.34372 0.125,1.34372 -0.55847,0 -1.2912,-0.6925 -1.625,-1.5625 -0.83447,-2.17476 -0.77539,-2.43748 0.5625,-2.43748 z m -12.75,0.34375 c 0.32672,-0.0243 0.5625,0.23776 0.5625,0.71875 0,0.67026 0.71283,0.89331 1.65631,0.53125 1.2973,-0.4978 1.3952,-0.32874 0.5,0.75001 -0.62299,0.75064 -0.83069,1.63803 -0.46881,2 0.36188,0.36185 -0.0834,0.65622 -1,0.65622 -0.91669,0 -1.70789,-0.11249 -1.75,-0.25 -0.63251,-2.06683 -0.57312,-3.83046 0.15631,-4.28123 0.12518,-0.0774 0.2348,-0.11692 0.34369,-0.125 z m 109.90631,1.125 c -0.40784,0.0878 -0.4198,0.58746 0.125,1.46873 0.36243,0.58661 1.4137,1.04877 2.34363,1.03125 1.48474,-0.0279 1.47314,-0.18872 -0.21863,-1.46875 -1.02759,-0.77735 -1.84228,-1.119 -2.25,-1.03123 z m 4,22.93751 c 0.42871,-0.0656 0.8833,0.14048 1.125,0.53122 0.3219,0.52097 0.14587,1.20932 -0.375,1.53125 -0.521,0.32196 -1.20935,0.14594 -1.53137,-0.375 -0.32202,-0.52093 -0.17713,-1.20929 0.34387,-1.53125 0.13013,-0.0805 0.29443,-0.1344 0.4375,-0.15622 z m 5.1875,0.37497 c -0.68579,0.12815 -0.70996,1.29224 0.5,2.75003 0.66431,0.80042 1.63269,1.19855 2.15613,0.875 0.5332,-0.32962 0.15881,-1.45468 -0.84363,-2.56253 -0.75635,-0.83563 -1.40112,-1.13934 -1.8125,-1.0625 z m -208.34381,0.4375 c 0.199524,-0.0726 0.551514,0.11402 1,0.5625 0.650818,0.65085 0.94043,1.43457 0.656311,1.71875 C 71.176392,261.99603 70,260.81964 70,259.48489 c 0,-0.23498 0.06781,-0.39395 0.1875,-0.43753 z m -6,2 C 64.06781,261.09094 64,261.24991 64,261.48489 c 0,0.56833 0.320801,1.32083 0.6875,1.6875 0.366699,0.36664 0.872131,0.44037 1.156311,0.15622 0.284119,-0.28418 -0.0055,-1.0679 -0.656311,-1.71875 -0.448486,-0.44848 -0.800476,-0.6351 -1,-0.5625 z m 28.093811,1.90628 c 0.08429,-0.0844 0.349915,0.13486 0.843689,0.62497 0.683411,0.67838 0.995422,1.47336 0.6875,1.78128 -0.307922,0.3079 -0.874512,-0.23257 -1.25,-1.21875 -0.271301,-0.71261 -0.365601,-1.10321 -0.281189,-1.1875 z m 180.656129,0.87497 c 0.58252,0 1.0625,0.45002 1.0625,1 0,1.28137 -0.70813,1.28137 -1.5,0 -0.33985,-0.54998 -0.14502,-1 0.4375,-1 z m -98.53113,4.09375 c 0.16437,-0.0601 0.52588,0.0634 1.09369,0.28128 0.9306,0.35709 2.76984,0.9177 4.09381,1.24997 2.61609,0.65662 3.34638,3.375 0.90619,3.375 -0.82501,0 -1.5,0.66104 -1.5,1.46875 0,0.92752 -0.56482,1.25788 -1.5625,0.87503 -1.2536,-0.48105 -1.5116,-0.0102 -1.25,2.28122 0.19562,1.71332 -0.29749,3.36078 -1.1875,4.0625 -1.21649,0.95923 -1.25281,1.42069 -0.21869,2.46875 1.01471,1.02851 1.68817,1.069 3.25,0.0938 1.94299,-1.21347 1.92389,-1.20883 0.0625,3 -1.03387,2.33774 -2.72443,7.10309 -3.75,10.59372 -1.83752,6.25299 -1.88739,6.33274 -3.6875,4.34375 -2.7489,-3.03753 -6.93988,-17.38104 -5.375,-18.37497 1.45429,-0.9237 2.58258,-1.10284 5.0625,-0.84378 1.54639,0.16156 1.72382,-0.3309 1.25,-3.31247 -0.52331,-3.29309 -0.34851,-3.60434 2.90619,-4.78128 1.91119,-0.6911 3.15692,-1.50851 2.75,-1.8125 -0.40692,-0.30398 -1.35187,-1.62024 -2.09369,-2.93747 -0.75458,-1.33963 -1.02423,-1.931 -0.75,-2.03128 z M 97.875,269.82861 c 0.549988,0 1.285095,0.45002 1.625,1 0.339905,0.54999 0.174988,1 -0.375,1 -0.549988,0 -1.285095,-0.44995 -1.625,-1 -0.339905,-0.54998 -0.174988,-1 0.375,-1 z m 172.87494,3.5625 c -0.92188,0.21918 -1.10632,1.73749 -0.0625,2.78128 1.12121,1.12119 2.3125,0.7515 2.3125,-0.71878 0,-0.76617 -0.67493,-1.65216 -1.5,-1.96872 -0.28186,-0.10818 -0.53723,-0.14438 -0.75,-0.0938 z m -14.46869,4.40625 c 0.32391,-0.0266 0.71533,0.23145 1.09369,0.84378 0.27124,0.43876 0.15625,1.38605 -0.28119,2.09372 -0.5799,0.93827 -0.94641,0.70743 -1.34381,-0.8125 -0.32868,-1.25708 -0.009,-2.08075 0.53131,-2.125 z m -61.03125,4.1875 c 0.42578,-0.0309 0.75,0.16336 0.75,0.65628 0,0.53699 -0.69159,1.25956 -1.5625,1.59375 -0.974,0.37372 -1.43109,0.137 -1.1875,-0.59375 0.3114,-0.93432 1.2904,-1.60464 2,-1.65628 z m 34.6875,1.84375 c 0.58252,0 1.0625,0.45002 1.0625,1 0,1.28137 -0.70807,1.28137 -1.5,0 -0.33991,-0.54998 -0.14502,-1 0.4375,-1 z m -62.25,0.25003 c -2.2038,0.1196 -2.35938,1.76999 0.3125,2.46872 1.10004,0.28766 2,0.92038 2,1.40628 0,0.48581 0.47418,0.87497 1.0625,0.87497 0.5882,0 0.92572,-0.96243 0.75,-2.15625 -0.22211,-1.5086 -1.15112,-2.2785 -3.0625,-2.53122 -0.39642,-0.0524 -0.74768,-0.0796 -1.0625,-0.0625 z m -28.625,7.84372 c 0.1535,0 0.8078,0.49979 2.15631,1.46875 1.49518,1.07441 2.73267,2.27503 2.75,2.68753 0.0595,1.42112 -1.74603,0.20728 -3.96881,-2.68753 -0.74402,-0.96896 -1.091,-1.46875 -0.9375,-1.46875 z m 71.125,2.90625 c -0.52618,0 -1.2041,0.93109 -1.5,2.0625 -0.34216,1.3086 -0.0888,1.93561 0.65631,1.6875 1.43829,-0.47885 2.17133,-3.75 0.84369,-3.75 z m -78.53119,3.25003 c 0.24762,-0.0942 0.336,0.36283 0.34369,1.49997 0.008,1.23752 -0.45001,2.25 -1,2.25 -1.25287,0 -1.25287,-1.06121 0,-3 0.29401,-0.45486 0.50769,-0.69348 0.65631,-0.74997 z"
         inkscape:connector-curvature="0"
         style="fill:#000000" />
    </g>
  </g>
</svg>
